<?xml version="1.0" encoding="UTF-8"?>
<svg viewBox="0 0 641.89093 156.68265" xmlns="http://www.w3.org/2000/svg" xmlns:xlink="http://www.w3.org/1999/xlink">
 <defs>
  <linearGradient id="b" x1="67.25" x2="73.539" gradientUnits="userSpaceOnUse">
   <stop stop-color="#fff" offset="0"/>
   <stop stop-color="#2f2f2f" offset="1"/>
  </linearGradient>
  <linearGradient id="c" x1="72.832" x2="129.4" y1="32.995" y2="176.46" gradientUnits="userSpaceOnUse">
   <stop stop-color="#c7c7c7" offset="0"/>
   <stop offset="1"/>
  </linearGradient>
 </defs>
 <g transform="translate(-50 -34.742)">
  <path d="m50 39.3v57.5h6.0938c5.3421 0 9.625 4.2829 9.625 9.625s-4.2829 9.6562-9.625 9.6562h-6.0938v17.844h7.1562c5.3421 0 9.625 4.3141 9.625 9.6562s-4.2829 9.625-9.625 9.625h-7.1562v38.219h347.62v-13.188c0-3.1036 1.9396-5.625 4.3438-5.625h1.5c2.4041 0 4.3438 2.5214 4.3438 5.625v13.188h282.19v-38.562h-5.3438c-5.3421 0-9.6562-4.3141-9.6562-9.6562s4.3141-9.625 9.6562-9.625h5.3438v-18.219h-5.7188c-5.3421 0-9.625-4.3141-9.625-9.6562s4.2829-9.625 9.625-9.625h5.7188v-56.781h-640zm628.75 135.09c3.2036 0 5.8125 2.5777 5.8125 5.7812s-2.6089 5.8125-5.8125 5.8125-5.7812-2.6089-5.7812-5.8125 2.5777-5.7812 5.7812-5.7812zm-616.06 0.53125c3.2036 0 5.8125 2.5777 5.8125 5.7812s-2.6089 5.8125-5.8125 5.8125-5.8125-2.6089-5.8125-5.8125 2.6089-5.7812 5.8125-5.7812z"/>
  <path d="m51.391 35.242v57.5h6.0938c5.3421 0 9.625 4.2829 9.625 9.625s-4.2829 9.6562-9.625 9.6562h-6.0938v17.844h7.1562c5.3421 0 9.625 4.3141 9.625 9.6562s-4.2829 9.625-9.625 9.625h-7.1562v38.219h347.62v-13.188c0-3.1036 1.9396-5.625 4.3438-5.625h1.5c2.4041 0 4.3438 2.5214 4.3438 5.625v13.188h282.19v-38.562h-5.3438c-5.3421 0-9.6562-4.3141-9.6562-9.6562s4.3141-9.625 9.6562-9.625h5.3438v-18.219h-5.7188c-5.3421 0-9.625-4.3141-9.625-9.6562s4.2829-9.625 9.625-9.625h5.7188v-56.781h-640zm628.75 135.09c3.2036 0 5.8125 2.5777 5.8125 5.7812s-2.6089 5.8125-5.8125 5.8125-5.7812-2.6089-5.7812-5.8125 2.5777-5.7812 5.7812-5.7812zm-616.06 0.53125c3.2036 0 5.8125 2.5777 5.8125 5.7812s-2.6089 5.8125-5.8125 5.8125-5.8125-2.6089-5.8125-5.8125 2.6089-5.7812 5.8125-5.7812z" fill="#008000" stroke="#000" stroke-linecap="round" stroke-linejoin="round"/>
  <path d="m77.782 175.55h3.8891v13.081h-3.8891z" fill="#ffb380"/>
  <path d="m83.872 175.55h3.8891v13.081h-3.8891z" fill="#ffb380"/>
  <path d="m89.962 175.55h3.8891v13.081h-3.8891z" fill="#ffb380"/>
  <path d="m96.052 175.55h3.8891v13.081h-3.8891z" fill="#ffb380"/>
  <path d="m102.14 175.55h3.8891v13.081h-3.8891z" fill="#ffb380"/>
  <path d="m108.23 175.55h3.8891v13.081h-3.8891z" fill="#ffb380"/>
  <path d="m114.32 175.55h3.8891v13.081h-3.8891z" fill="#ffb380"/>
  <path d="m120.41 175.55h3.8891v13.081h-3.8891z" fill="#ffb380"/>
  <path d="m126.5 175.55h3.8891v13.081h-3.8891z" fill="#ffb380"/>
  <path d="m132.59 175.55h3.8891v13.081h-3.8891z" fill="#ffb380"/>
  <path d="m138.68 175.55h3.8891v13.081h-3.8891z" fill="#ffb380"/>
  <path d="m144.77 175.55h3.8891v13.081h-3.8891z" fill="#ffb380"/>
  <path d="m150.86 175.55h3.8891v13.081h-3.8891z" fill="#ffb380"/>
  <path d="m156.95 175.55h3.8891v13.081h-3.8891z" fill="#ffb380"/>
  <path d="m163.04 175.55h3.8891v13.081h-3.8891z" fill="#ffb380"/>
  <path d="m169.13 175.55h3.8891v13.081h-3.8891z" fill="#ffb380"/>
  <path d="m175.22 175.55h3.8891v13.081h-3.8891z" fill="#ffb380"/>
  <path d="m181.31 175.55h3.8891v13.081h-3.8891z" fill="#ffb380"/>
  <path d="m187.4 175.55h3.8891v13.081h-3.8891z" fill="#ffb380"/>
  <path d="m193.49 175.55h3.8891v13.081h-3.8891z" fill="#ffb380"/>
  <path d="m199.58 175.55h3.8891v13.081h-3.8891z" fill="#ffb380"/>
  <path d="m205.67 175.55h3.8891v13.081h-3.8891z" fill="#ffb380"/>
  <path d="m211.76 175.55h3.8891v13.081h-3.8891z" fill="#ffb380"/>
  <path d="m217.85 175.55h3.8891v13.081h-3.8891z" fill="#ffb380"/>
  <path d="m223.94 175.55h3.8891v13.081h-3.8891z" fill="#ffb380"/>
  <path d="m230.03 175.55h3.8891v13.081h-3.8891z" fill="#ffb380"/>
  <path d="m236.13 175.55h3.8891v13.081h-3.8891z" fill="#ffb380"/>
  <path d="m242.22 175.55h3.8891v13.081h-3.8891z" fill="#ffb380"/>
  <path d="m248.31 175.55h3.8891v13.081h-3.8891z" fill="#ffb380"/>
  <path d="m254.4 175.55h3.8891v13.081h-3.8891z" fill="#ffb380"/>
  <path d="m260.49 175.55h3.8891v13.081h-3.8891z" fill="#ffb380"/>
  <path d="m266.58 175.55h3.8891v13.081h-3.8891z" fill="#ffb380"/>
  <path d="m272.67 175.55h3.8891v13.081h-3.8891z" fill="#ffb380"/>
  <path d="m278.76 175.55h3.8891v13.081h-3.8891z" fill="#ffb380"/>
  <path d="m284.85 175.55h3.8891v13.081h-3.8891z" fill="#ffb380"/>
  <path d="m290.94 175.55h3.8891v13.081h-3.8891z" fill="#ffb380"/>
  <path d="m297.03 175.55h3.8891v13.081h-3.8891z" fill="#ffb380"/>
  <path d="m303.12 175.55h3.8891v13.081h-3.8891z" fill="#ffb380"/>
  <path d="m309.21 175.55h3.8891v13.081h-3.8891z" fill="#ffb380"/>
  <path d="m315.3 175.55h3.8891v13.081h-3.8891z" fill="#ffb380"/>
  <path d="m321.39 175.55h3.8891v13.081h-3.8891z" fill="#ffb380"/>
  <path d="m327.48 175.55h3.8891v13.081h-3.8891z" fill="#ffb380"/>
  <path d="m333.57 175.55h3.8891v13.081h-3.8891z" fill="#ffb380"/>
  <path d="m339.66 175.55h3.8891v13.081h-3.8891z" fill="#ffb380"/>
  <path d="m345.75 175.55h3.8891v13.081h-3.8891z" fill="#ffb380"/>
  <path d="m351.84 175.55h3.8891v13.081h-3.8891z" fill="#ffb380"/>
  <path d="m357.93 175.55h3.8891v13.081h-3.8891z" fill="#ffb380"/>
  <path d="m364.02 175.55h3.8891v13.081h-3.8891z" fill="#ffb380"/>
  <path d="m370.11 175.55h3.8891v13.081h-3.8891z" fill="#ffb380"/>
  <path d="m376.2 175.55h3.8891v13.081h-3.8891z" fill="#ffb380"/>
  <path d="m382.29 175.55h3.8891v13.081h-3.8891z" fill="#ffb380"/>
  <path d="m388.38 175.55h3.8891v13.081h-3.8891z" fill="#ffb380"/>
  <g transform="translate(0 -1.2717)" fill="#ffb380">
   <path d="m419.76 176.82h3.8891v13.081h-3.8891z"/>
   <path d="m425.85 176.82h3.8891v13.081h-3.8891z"/>
   <path d="m431.94 176.82h3.8891v13.081h-3.8891z"/>
   <path d="m438.03 176.82h3.8891v13.081h-3.8891z"/>
   <path d="m444.12 176.82h3.8891v13.081h-3.8891z"/>
   <path d="m450.21 176.82h3.8891v13.081h-3.8891z"/>
   <path d="m456.3 176.82h3.8891v13.081h-3.8891z"/>
   <path d="m462.39 176.82h3.8891v13.081h-3.8891z"/>
   <path d="m468.48 176.82h3.8891v13.081h-3.8891z"/>
   <path d="m474.57 176.82h3.8891v13.081h-3.8891z"/>
   <path d="m480.66 176.82h3.8891v13.081h-3.8891z"/>
   <path d="m486.75 176.82h3.8891v13.081h-3.8891z"/>
   <path d="m492.84 176.82h3.8891v13.081h-3.8891z"/>
   <path d="m498.93 176.82h3.8891v13.081h-3.8891z"/>
   <path d="m505.02 176.82h3.8891v13.081h-3.8891z"/>
   <path d="m511.11 176.82h3.8891v13.081h-3.8891z"/>
   <path d="m517.2 176.82h3.8891v13.081h-3.8891z"/>
   <path d="m523.29 176.82h3.8891v13.081h-3.8891z"/>
   <path d="m529.38 176.82h3.8891v13.081h-3.8891z"/>
   <path d="m535.47 176.82h3.8891v13.081h-3.8891z"/>
   <path d="m541.56 176.82h3.8891v13.081h-3.8891z"/>
   <path d="m547.65 176.82h3.8891v13.081h-3.8891z"/>
   <path d="m553.74 176.82h3.8891v13.081h-3.8891z"/>
   <path d="m559.83 176.82h3.8891v13.081h-3.8891z"/>
   <path d="m565.92 176.82h3.8891v13.081h-3.8891z"/>
   <path d="m572.01 176.82h3.8891v13.081h-3.8891z"/>
   <path d="m578.1 176.82h3.8891v13.081h-3.8891z"/>
   <path d="m584.19 176.82h3.8891v13.081h-3.8891z"/>
   <path d="m590.28 176.82h3.8891v13.081h-3.8891z"/>
   <path d="m596.37 176.82h3.8891v13.081h-3.8891z"/>
   <path d="m602.46 176.82h3.8891v13.081h-3.8891z"/>
   <path d="m608.55 176.82h3.8891v13.081h-3.8891z"/>
   <path d="m614.64 176.82h3.8891v13.081h-3.8891z"/>
   <path d="m620.73 176.82h3.8891v13.081h-3.8891z"/>
   <path d="m626.82 176.82h3.8891v13.081h-3.8891z"/>
   <path d="m632.91 176.82h3.8891v13.081h-3.8891z"/>
   <path d="m639 176.82h3.8891v13.081h-3.8891z"/>
   <path d="m645.09 176.82h3.8891v13.081h-3.8891z"/>
   <path d="m651.18 176.82h3.8891v13.081h-3.8891z"/>
   <path d="m657.27 176.82h3.8891v13.081h-3.8891z"/>
  </g>
  <path d="m113.14 51.099h249.61l5.6568-4.9498h26.87l4.9498 4.9498h183.85" fill="none" stroke="#0f0"/>
  <path d="m113.14 53.099h249.61l5.6568-4.9498h26.87l4.9498 4.9498h183.85" fill="none" stroke="#0f0"/>
  <path d="m113.14 55.099h249.61l5.6568-4.9498h26.87l4.9498 4.9498h183.85" fill="none" stroke="#0f0"/>
  <path d="m113.14 57.099h249.61l5.6568-4.9498h26.87l4.9498 4.9498h183.85" fill="none" stroke="#0f0"/>
  <path d="m113.14 59.099h249.61l5.6568-2.9498h8.8701l4.9498 2.9498h201.85" fill="none" stroke="#0f0"/>
  <path d="m113.14 61.099h249.61l5.6568 2e-5h13.82l201.85-2e-5" fill="none" stroke="#0f0"/>
  <path d="m113.14 63.099h249.61l5.6568 2.5h8.8701l4.9498-2.5 201.85-2e-5" fill="none" stroke="#0f0"/>
  <path d="m113.14 65.099h249.61l5.6568 2.5h8.8701l4.9498-2.5 201.85-2e-5" fill="none" stroke="#0f0"/>
  <path transform="translate(-13.5,1)" d="m392.25 55.737a1.625 1.625 0 1 1 -3.25 0 1.625 1.625 0 1 1 3.25 0z" fill="#008000" stroke="#0f0" stroke-linecap="round" stroke-linejoin="round"/>
  <path transform="translate(2.625,-.125)" d="m392.25 55.737a1.625 1.625 0 1 1 -3.25 0 1.625 1.625 0 1 1 3.25 0z" fill="#008000" stroke="#0f0" stroke-linecap="round" stroke-linejoin="round"/>
  <path d="m407 82.862-9 8.5 0.25 30.25-32.75 28v-20l-24.375-24.375h-22.125" fill="none" stroke="#0f0"/>
  <path transform="translate(-25.375,94.375)" d="m392.25 55.737a1.625 1.625 0 1 1 -3.25 0 1.625 1.625 0 1 1 3.25 0z" fill="#008000" stroke="#0f0" stroke-linecap="round" stroke-linejoin="round"/>
  <path d="m72.832 46.856h48.79v104.65h-48.79z" fill="url(#c)"/>
  <path id="a" d="m68.236 47.563h4.2426a1.0607 1.0607 0 0 1 1.0607 1.0607 1.0607 1.0607 0 0 1 -1.0607 1.0607h-4.2426a1.0607 1.0607 0 0 1 -1.0607 -1.0607 1.0607 1.0607 0 0 1 1.0607 -1.0607" fill="url(#b)"/>
  <use width="744.09448" height="1052.3622" xlink:href="#a"/>
  <use transform="translate(0 3.182)" width="744.09448" height="1052.3622" xlink:href="#a"/>
  <use transform="translate(0 6.364)" width="744.09448" height="1052.3622" xlink:href="#a"/>
  <use transform="translate(0 9.5459)" width="744.09448" height="1052.3622" xlink:href="#a"/>
  <use transform="translate(0 12.728)" width="744.09448" height="1052.3622" xlink:href="#a"/>
  <use transform="translate(0 15.91)" width="744.09448" height="1052.3622" xlink:href="#a"/>
  <use transform="translate(0 19.092)" width="744.09448" height="1052.3622" xlink:href="#a"/>
  <use transform="translate(0 22.274)" width="744.09448" height="1052.3622" xlink:href="#a"/>
  <use transform="translate(0 25.456)" width="744.09448" height="1052.3622" xlink:href="#a"/>
  <use transform="translate(0 28.638)" width="744.09448" height="1052.3622" xlink:href="#a"/>
  <use transform="translate(0 31.82)" width="744.09448" height="1052.3622" xlink:href="#a"/>
  <use transform="translate(0 35.002)" width="744.09448" height="1052.3622" xlink:href="#a"/>
  <use transform="translate(0 38.184)" width="744.09448" height="1052.3622" xlink:href="#a"/>
  <use transform="translate(0 41.366)" width="744.09448" height="1052.3622" xlink:href="#a"/>
  <use transform="translate(0 44.548)" width="744.09448" height="1052.3622" xlink:href="#a"/>
  <use transform="translate(0 47.73)" width="744.09448" height="1052.3622" xlink:href="#a"/>
  <use transform="translate(0 50.912)" width="744.09448" height="1052.3622" xlink:href="#a"/>
  <use transform="translate(0 54.094)" width="744.09448" height="1052.3622" xlink:href="#a"/>
  <use transform="translate(0 57.276)" width="744.09448" height="1052.3622" xlink:href="#a"/>
  <use transform="translate(0 60.458)" width="744.09448" height="1052.3622" xlink:href="#a"/>
  <use transform="translate(0 63.64)" width="744.09448" height="1052.3622" xlink:href="#a"/>
  <use transform="translate(0 66.822)" width="744.09448" height="1052.3622" xlink:href="#a"/>
  <use transform="translate(0 70.004)" width="744.09448" height="1052.3622" xlink:href="#a"/>
  <use transform="translate(0 73.186)" width="744.09448" height="1052.3622" xlink:href="#a"/>
  <use transform="translate(0 76.368)" width="744.09448" height="1052.3622" xlink:href="#a"/>
  <use transform="translate(0 79.55)" width="744.09448" height="1052.3622" xlink:href="#a"/>
  <use transform="translate(0 82.731)" width="744.09448" height="1052.3622" xlink:href="#a"/>
  <use transform="translate(0 85.913)" width="744.09448" height="1052.3622" xlink:href="#a"/>
  <use transform="translate(0 89.095)" width="744.09448" height="1052.3622" xlink:href="#a"/>
  <use transform="translate(0 92.277)" width="744.09448" height="1052.3622" xlink:href="#a"/>
  <use transform="translate(0 95.459)" width="744.09448" height="1052.3622" xlink:href="#a"/>
  <use transform="translate(0 98.641)" width="744.09448" height="1052.3622" xlink:href="#a"/>
  <g transform="matrix(-1 0 0 1 195.16 0)">
   <path d="m68.236 47.563h4.2426a1.0607 1.0607 0 0 1 1.0607 1.0607 1.0607 1.0607 0 0 1 -1.0607 1.0607h-4.2426a1.0607 1.0607 0 0 1 -1.0607 -1.0607 1.0607 1.0607 0 0 1 1.0607 -1.0607" fill="url(#b)"/>
   <use width="744.09448" height="1052.3622" xlink:href="#a"/>
   <use transform="translate(0 3.182)" width="744.09448" height="1052.3622" xlink:href="#a"/>
   <use transform="translate(0 6.364)" width="744.09448" height="1052.3622" xlink:href="#a"/>
   <use transform="translate(0 9.5459)" width="744.09448" height="1052.3622" xlink:href="#a"/>
   <use transform="translate(0 12.728)" width="744.09448" height="1052.3622" xlink:href="#a"/>
   <use transform="translate(0 15.91)" width="744.09448" height="1052.3622" xlink:href="#a"/>
   <use transform="translate(0 19.092)" width="744.09448" height="1052.3622" xlink:href="#a"/>
   <use transform="translate(0 22.274)" width="744.09448" height="1052.3622" xlink:href="#a"/>
   <use transform="translate(0 25.456)" width="744.09448" height="1052.3622" xlink:href="#a"/>
   <use transform="translate(0 28.638)" width="744.09448" height="1052.3622" xlink:href="#a"/>
   <use transform="translate(0 31.82)" width="744.09448" height="1052.3622" xlink:href="#a"/>
   <use transform="translate(0 35.002)" width="744.09448" height="1052.3622" xlink:href="#a"/>
   <use transform="translate(0 38.184)" width="744.09448" height="1052.3622" xlink:href="#a"/>
   <use transform="translate(0 41.366)" width="744.09448" height="1052.3622" xlink:href="#a"/>
   <use transform="translate(0 44.548)" width="744.09448" height="1052.3622" xlink:href="#a"/>
   <use transform="translate(0 47.73)" width="744.09448" height="1052.3622" xlink:href="#a"/>
   <use transform="translate(0 50.912)" width="744.09448" height="1052.3622" xlink:href="#a"/>
   <use transform="translate(0 54.094)" width="744.09448" height="1052.3622" xlink:href="#a"/>
   <use transform="translate(0 57.276)" width="744.09448" height="1052.3622" xlink:href="#a"/>
   <use transform="translate(0 60.458)" width="744.09448" height="1052.3622" xlink:href="#a"/>
   <use transform="translate(0 63.64)" width="744.09448" height="1052.3622" xlink:href="#a"/>
   <use transform="translate(0 66.822)" width="744.09448" height="1052.3622" xlink:href="#a"/>
   <use transform="translate(0 70.004)" width="744.09448" height="1052.3622" xlink:href="#a"/>
   <use transform="translate(0 73.186)" width="744.09448" height="1052.3622" xlink:href="#a"/>
   <use transform="translate(0 76.368)" width="744.09448" height="1052.3622" xlink:href="#a"/>
   <use transform="translate(0 79.55)" width="744.09448" height="1052.3622" xlink:href="#a"/>
   <use transform="translate(0 82.731)" width="744.09448" height="1052.3622" xlink:href="#a"/>
   <use transform="translate(0 85.913)" width="744.09448" height="1052.3622" xlink:href="#a"/>
   <use transform="translate(0 89.095)" width="744.09448" height="1052.3622" xlink:href="#a"/>
   <use transform="translate(0 92.277)" width="744.09448" height="1052.3622" xlink:href="#a"/>
   <use transform="translate(0 95.459)" width="744.09448" height="1052.3622" xlink:href="#a"/>
   <use transform="translate(0 98.641)" width="744.09448" height="1052.3622" xlink:href="#a"/>
  </g>
  <g transform="translate(204)">
   <path d="m72.832 46.856h48.79v104.65h-48.79z" fill="url(#c)"/>
   <path d="m68.236 47.563h4.2426a1.0607 1.0607 0 0 1 1.0607 1.0607 1.0607 1.0607 0 0 1 -1.0607 1.0607h-4.2426a1.0607 1.0607 0 0 1 -1.0607 -1.0607 1.0607 1.0607 0 0 1 1.0607 -1.0607" fill="url(#b)"/>
   <use width="744.09448" height="1052.3622" xlink:href="#a"/>
   <use transform="translate(0 3.182)" width="744.09448" height="1052.3622" xlink:href="#a"/>
   <use transform="translate(0 6.364)" width="744.09448" height="1052.3622" xlink:href="#a"/>
   <use transform="translate(0 9.5459)" width="744.09448" height="1052.3622" xlink:href="#a"/>
   <use transform="translate(0 12.728)" width="744.09448" height="1052.3622" xlink:href="#a"/>
   <use transform="translate(0 15.91)" width="744.09448" height="1052.3622" xlink:href="#a"/>
   <use transform="translate(0 19.092)" width="744.09448" height="1052.3622" xlink:href="#a"/>
   <use transform="translate(0 22.274)" width="744.09448" height="1052.3622" xlink:href="#a"/>
   <use transform="translate(0 25.456)" width="744.09448" height="1052.3622" xlink:href="#a"/>
   <use transform="translate(0 28.638)" width="744.09448" height="1052.3622" xlink:href="#a"/>
   <use transform="translate(0 31.82)" width="744.09448" height="1052.3622" xlink:href="#a"/>
   <use transform="translate(0 35.002)" width="744.09448" height="1052.3622" xlink:href="#a"/>
   <use transform="translate(0 38.184)" width="744.09448" height="1052.3622" xlink:href="#a"/>
   <use transform="translate(0 41.366)" width="744.09448" height="1052.3622" xlink:href="#a"/>
   <use transform="translate(0 44.548)" width="744.09448" height="1052.3622" xlink:href="#a"/>
   <use transform="translate(0 47.73)" width="744.09448" height="1052.3622" xlink:href="#a"/>
   <use transform="translate(0 50.912)" width="744.09448" height="1052.3622" xlink:href="#a"/>
   <use transform="translate(0 54.094)" width="744.09448" height="1052.3622" xlink:href="#a"/>
   <use transform="translate(0 57.276)" width="744.09448" height="1052.3622" xlink:href="#a"/>
   <use transform="translate(0 60.458)" width="744.09448" height="1052.3622" xlink:href="#a"/>
   <use transform="translate(0 63.64)" width="744.09448" height="1052.3622" xlink:href="#a"/>
   <use transform="translate(0 66.822)" width="744.09448" height="1052.3622" xlink:href="#a"/>
   <use transform="translate(0 70.004)" width="744.09448" height="1052.3622" xlink:href="#a"/>
   <use transform="translate(0 73.186)" width="744.09448" height="1052.3622" xlink:href="#a"/>
   <use transform="translate(0 76.368)" width="744.09448" height="1052.3622" xlink:href="#a"/>
   <use transform="translate(0 79.55)" width="744.09448" height="1052.3622" xlink:href="#a"/>
   <use transform="translate(0 82.731)" width="744.09448" height="1052.3622" xlink:href="#a"/>
   <use transform="translate(0 85.913)" width="744.09448" height="1052.3622" xlink:href="#a"/>
   <use transform="translate(0 89.095)" width="744.09448" height="1052.3622" xlink:href="#a"/>
   <use transform="translate(0 92.277)" width="744.09448" height="1052.3622" xlink:href="#a"/>
   <use transform="translate(0 95.459)" width="744.09448" height="1052.3622" xlink:href="#a"/>
   <use transform="translate(0 98.641)" width="744.09448" height="1052.3622" xlink:href="#a"/>
   <g transform="matrix(-1 0 0 1 195.16 0)">
    <path d="m68.236 47.563h4.2426a1.0607 1.0607 0 0 1 1.0607 1.0607 1.0607 1.0607 0 0 1 -1.0607 1.0607h-4.2426a1.0607 1.0607 0 0 1 -1.0607 -1.0607 1.0607 1.0607 0 0 1 1.0607 -1.0607" fill="url(#b)"/>
    <use width="744.09448" height="1052.3622" xlink:href="#a"/>
    <use transform="translate(0 3.182)" width="744.09448" height="1052.3622" xlink:href="#a"/>
    <use transform="translate(0 6.364)" width="744.09448" height="1052.3622" xlink:href="#a"/>
    <use transform="translate(0 9.5459)" width="744.09448" height="1052.3622" xlink:href="#a"/>
    <use transform="translate(0 12.728)" width="744.09448" height="1052.3622" xlink:href="#a"/>
    <use transform="translate(0 15.91)" width="744.09448" height="1052.3622" xlink:href="#a"/>
    <use transform="translate(0 19.092)" width="744.09448" height="1052.3622" xlink:href="#a"/>
    <use transform="translate(0 22.274)" width="744.09448" height="1052.3622" xlink:href="#a"/>
    <use transform="translate(0 25.456)" width="744.09448" height="1052.3622" xlink:href="#a"/>
    <use transform="translate(0 28.638)" width="744.09448" height="1052.3622" xlink:href="#a"/>
    <use transform="translate(0 31.82)" width="744.09448" height="1052.3622" xlink:href="#a"/>
    <use transform="translate(0 35.002)" width="744.09448" height="1052.3622" xlink:href="#a"/>
    <use transform="translate(0 38.184)" width="744.09448" height="1052.3622" xlink:href="#a"/>
    <use transform="translate(0 41.366)" width="744.09448" height="1052.3622" xlink:href="#a"/>
    <use transform="translate(0 44.548)" width="744.09448" height="1052.3622" xlink:href="#a"/>
    <use transform="translate(0 47.73)" width="744.09448" height="1052.3622" xlink:href="#a"/>
    <use transform="translate(0 50.912)" width="744.09448" height="1052.3622" xlink:href="#a"/>
    <use transform="translate(0 54.094)" width="744.09448" height="1052.3622" xlink:href="#a"/>
    <use transform="translate(0 57.276)" width="744.09448" height="1052.3622" xlink:href="#a"/>
    <use transform="translate(0 60.458)" width="744.09448" height="1052.3622" xlink:href="#a"/>
    <use transform="translate(0 63.64)" width="744.09448" height="1052.3622" xlink:href="#a"/>
    <use transform="translate(0 66.822)" width="744.09448" height="1052.3622" xlink:href="#a"/>
    <use transform="translate(0 70.004)" width="744.09448" height="1052.3622" xlink:href="#a"/>
    <use transform="translate(0 73.186)" width="744.09448" height="1052.3622" xlink:href="#a"/>
    <use transform="translate(0 76.368)" width="744.09448" height="1052.3622" xlink:href="#a"/>
    <use transform="translate(0 79.55)" width="744.09448" height="1052.3622" xlink:href="#a"/>
    <use transform="translate(0 82.731)" width="744.09448" height="1052.3622" xlink:href="#a"/>
    <use transform="translate(0 85.913)" width="744.09448" height="1052.3622" xlink:href="#a"/>
    <use transform="translate(0 89.095)" width="744.09448" height="1052.3622" xlink:href="#a"/>
    <use transform="translate(0 92.277)" width="744.09448" height="1052.3622" xlink:href="#a"/>
    <use transform="translate(0 95.459)" width="744.09448" height="1052.3622" xlink:href="#a"/>
    <use transform="translate(0 98.641)" width="744.09448" height="1052.3622" xlink:href="#a"/>
   </g>
  </g>
  <g transform="translate(136)">
   <path d="m72.832 46.856h48.79v104.65h-48.79z" fill="url(#c)"/>
   <path d="m68.236 47.563h4.2426a1.0607 1.0607 0 0 1 1.0607 1.0607 1.0607 1.0607 0 0 1 -1.0607 1.0607h-4.2426a1.0607 1.0607 0 0 1 -1.0607 -1.0607 1.0607 1.0607 0 0 1 1.0607 -1.0607" fill="url(#b)"/>
   <use width="744.09448" height="1052.3622" xlink:href="#a"/>
   <use transform="translate(0 3.182)" width="744.09448" height="1052.3622" xlink:href="#a"/>
   <use transform="translate(0 6.364)" width="744.09448" height="1052.3622" xlink:href="#a"/>
   <use transform="translate(0 9.5459)" width="744.09448" height="1052.3622" xlink:href="#a"/>
   <use transform="translate(0 12.728)" width="744.09448" height="1052.3622" xlink:href="#a"/>
   <use transform="translate(0 15.91)" width="744.09448" height="1052.3622" xlink:href="#a"/>
   <use transform="translate(0 19.092)" width="744.09448" height="1052.3622" xlink:href="#a"/>
   <use transform="translate(0 22.274)" width="744.09448" height="1052.3622" xlink:href="#a"/>
   <use transform="translate(0 25.456)" width="744.09448" height="1052.3622" xlink:href="#a"/>
   <use transform="translate(0 28.638)" width="744.09448" height="1052.3622" xlink:href="#a"/>
   <use transform="translate(0 31.82)" width="744.09448" height="1052.3622" xlink:href="#a"/>
   <use transform="translate(0 35.002)" width="744.09448" height="1052.3622" xlink:href="#a"/>
   <use transform="translate(0 38.184)" width="744.09448" height="1052.3622" xlink:href="#a"/>
   <use transform="translate(0 41.366)" width="744.09448" height="1052.3622" xlink:href="#a"/>
   <use transform="translate(0 44.548)" width="744.09448" height="1052.3622" xlink:href="#a"/>
   <use transform="translate(0 47.73)" width="744.09448" height="1052.3622" xlink:href="#a"/>
   <use transform="translate(0 50.912)" width="744.09448" height="1052.3622" xlink:href="#a"/>
   <use transform="translate(0 54.094)" width="744.09448" height="1052.3622" xlink:href="#a"/>
   <use transform="translate(0 57.276)" width="744.09448" height="1052.3622" xlink:href="#a"/>
   <use transform="translate(0 60.458)" width="744.09448" height="1052.3622" xlink:href="#a"/>
   <use transform="translate(0 63.64)" width="744.09448" height="1052.3622" xlink:href="#a"/>
   <use transform="translate(0 66.822)" width="744.09448" height="1052.3622" xlink:href="#a"/>
   <use transform="translate(0 70.004)" width="744.09448" height="1052.3622" xlink:href="#a"/>
   <use transform="translate(0 73.186)" width="744.09448" height="1052.3622" xlink:href="#a"/>
   <use transform="translate(0 76.368)" width="744.09448" height="1052.3622" xlink:href="#a"/>
   <use transform="translate(0 79.55)" width="744.09448" height="1052.3622" xlink:href="#a"/>
   <use transform="translate(0 82.731)" width="744.09448" height="1052.3622" xlink:href="#a"/>
   <use transform="translate(0 85.913)" width="744.09448" height="1052.3622" xlink:href="#a"/>
   <use transform="translate(0 89.095)" width="744.09448" height="1052.3622" xlink:href="#a"/>
   <use transform="translate(0 92.277)" width="744.09448" height="1052.3622" xlink:href="#a"/>
   <use transform="translate(0 95.459)" width="744.09448" height="1052.3622" xlink:href="#a"/>
   <use transform="translate(0 98.641)" width="744.09448" height="1052.3622" xlink:href="#a"/>
   <g transform="matrix(-1 0 0 1 195.16 0)">
    <path d="m68.236 47.563h4.2426a1.0607 1.0607 0 0 1 1.0607 1.0607 1.0607 1.0607 0 0 1 -1.0607 1.0607h-4.2426a1.0607 1.0607 0 0 1 -1.0607 -1.0607 1.0607 1.0607 0 0 1 1.0607 -1.0607" fill="url(#b)"/>
    <use width="744.09448" height="1052.3622" xlink:href="#a"/>
    <use transform="translate(0 3.182)" width="744.09448" height="1052.3622" xlink:href="#a"/>
    <use transform="translate(0 6.364)" width="744.09448" height="1052.3622" xlink:href="#a"/>
    <use transform="translate(0 9.5459)" width="744.09448" height="1052.3622" xlink:href="#a"/>
    <use transform="translate(0 12.728)" width="744.09448" height="1052.3622" xlink:href="#a"/>
    <use transform="translate(0 15.91)" width="744.09448" height="1052.3622" xlink:href="#a"/>
    <use transform="translate(0 19.092)" width="744.09448" height="1052.3622" xlink:href="#a"/>
    <use transform="translate(0 22.274)" width="744.09448" height="1052.3622" xlink:href="#a"/>
    <use transform="translate(0 25.456)" width="744.09448" height="1052.3622" xlink:href="#a"/>
    <use transform="translate(0 28.638)" width="744.09448" height="1052.3622" xlink:href="#a"/>
    <use transform="translate(0 31.82)" width="744.09448" height="1052.3622" xlink:href="#a"/>
    <use transform="translate(0 35.002)" width="744.09448" height="1052.3622" xlink:href="#a"/>
    <use transform="translate(0 38.184)" width="744.09448" height="1052.3622" xlink:href="#a"/>
    <use transform="translate(0 41.366)" width="744.09448" height="1052.3622" xlink:href="#a"/>
    <use transform="translate(0 44.548)" width="744.09448" height="1052.3622" xlink:href="#a"/>
    <use transform="translate(0 47.73)" width="744.09448" height="1052.3622" xlink:href="#a"/>
    <use transform="translate(0 50.912)" width="744.09448" height="1052.3622" xlink:href="#a"/>
    <use transform="translate(0 54.094)" width="744.09448" height="1052.3622" xlink:href="#a"/>
    <use transform="translate(0 57.276)" width="744.09448" height="1052.3622" xlink:href="#a"/>
    <use transform="translate(0 60.458)" width="744.09448" height="1052.3622" xlink:href="#a"/>
    <use transform="translate(0 63.64)" width="744.09448" height="1052.3622" xlink:href="#a"/>
    <use transform="translate(0 66.822)" width="744.09448" height="1052.3622" xlink:href="#a"/>
    <use transform="translate(0 70.004)" width="744.09448" height="1052.3622" xlink:href="#a"/>
    <use transform="translate(0 73.186)" width="744.09448" height="1052.3622" xlink:href="#a"/>
    <use transform="translate(0 76.368)" width="744.09448" height="1052.3622" xlink:href="#a"/>
    <use transform="translate(0 79.55)" width="744.09448" height="1052.3622" xlink:href="#a"/>
    <use transform="translate(0 82.731)" width="744.09448" height="1052.3622" xlink:href="#a"/>
    <use transform="translate(0 85.913)" width="744.09448" height="1052.3622" xlink:href="#a"/>
    <use transform="translate(0 89.095)" width="744.09448" height="1052.3622" xlink:href="#a"/>
    <use transform="translate(0 92.277)" width="744.09448" height="1052.3622" xlink:href="#a"/>
    <use transform="translate(0 95.459)" width="744.09448" height="1052.3622" xlink:href="#a"/>
    <use transform="translate(0 98.641)" width="744.09448" height="1052.3622" xlink:href="#a"/>
   </g>
  </g>
  <g transform="translate(68)">
   <path d="m72.832 46.856h48.79v104.65h-48.79z" fill="url(#c)"/>
   <path d="m68.236 47.563h4.2426a1.0607 1.0607 0 0 1 1.0607 1.0607 1.0607 1.0607 0 0 1 -1.0607 1.0607h-4.2426a1.0607 1.0607 0 0 1 -1.0607 -1.0607 1.0607 1.0607 0 0 1 1.0607 -1.0607" fill="url(#b)"/>
   <use width="744.09448" height="1052.3622" xlink:href="#a"/>
   <use transform="translate(0 3.182)" width="744.09448" height="1052.3622" xlink:href="#a"/>
   <use transform="translate(0 6.364)" width="744.09448" height="1052.3622" xlink:href="#a"/>
   <use transform="translate(0 9.5459)" width="744.09448" height="1052.3622" xlink:href="#a"/>
   <use transform="translate(0 12.728)" width="744.09448" height="1052.3622" xlink:href="#a"/>
   <use transform="translate(0 15.91)" width="744.09448" height="1052.3622" xlink:href="#a"/>
   <use transform="translate(0 19.092)" width="744.09448" height="1052.3622" xlink:href="#a"/>
   <use transform="translate(0 22.274)" width="744.09448" height="1052.3622" xlink:href="#a"/>
   <use transform="translate(0 25.456)" width="744.09448" height="1052.3622" xlink:href="#a"/>
   <use transform="translate(0 28.638)" width="744.09448" height="1052.3622" xlink:href="#a"/>
   <use transform="translate(0 31.82)" width="744.09448" height="1052.3622" xlink:href="#a"/>
   <use transform="translate(0 35.002)" width="744.09448" height="1052.3622" xlink:href="#a"/>
   <use transform="translate(0 38.184)" width="744.09448" height="1052.3622" xlink:href="#a"/>
   <use transform="translate(0 41.366)" width="744.09448" height="1052.3622" xlink:href="#a"/>
   <use transform="translate(0 44.548)" width="744.09448" height="1052.3622" xlink:href="#a"/>
   <use transform="translate(0 47.73)" width="744.09448" height="1052.3622" xlink:href="#a"/>
   <use transform="translate(0 50.912)" width="744.09448" height="1052.3622" xlink:href="#a"/>
   <use transform="translate(0 54.094)" width="744.09448" height="1052.3622" xlink:href="#a"/>
   <use transform="translate(0 57.276)" width="744.09448" height="1052.3622" xlink:href="#a"/>
   <use transform="translate(0 60.458)" width="744.09448" height="1052.3622" xlink:href="#a"/>
   <use transform="translate(0 63.64)" width="744.09448" height="1052.3622" xlink:href="#a"/>
   <use transform="translate(0 66.822)" width="744.09448" height="1052.3622" xlink:href="#a"/>
   <use transform="translate(0 70.004)" width="744.09448" height="1052.3622" xlink:href="#a"/>
   <use transform="translate(0 73.186)" width="744.09448" height="1052.3622" xlink:href="#a"/>
   <use transform="translate(0 76.368)" width="744.09448" height="1052.3622" xlink:href="#a"/>
   <use transform="translate(0 79.55)" width="744.09448" height="1052.3622" xlink:href="#a"/>
   <use transform="translate(0 82.731)" width="744.09448" height="1052.3622" xlink:href="#a"/>
   <use transform="translate(0 85.913)" width="744.09448" height="1052.3622" xlink:href="#a"/>
   <use transform="translate(0 89.095)" width="744.09448" height="1052.3622" xlink:href="#a"/>
   <use transform="translate(0 92.277)" width="744.09448" height="1052.3622" xlink:href="#a"/>
   <use transform="translate(0 95.459)" width="744.09448" height="1052.3622" xlink:href="#a"/>
   <use transform="translate(0 98.641)" width="744.09448" height="1052.3622" xlink:href="#a"/>
   <g transform="matrix(-1 0 0 1 195.16 0)">
    <path d="m68.236 47.563h4.2426a1.0607 1.0607 0 0 1 1.0607 1.0607 1.0607 1.0607 0 0 1 -1.0607 1.0607h-4.2426a1.0607 1.0607 0 0 1 -1.0607 -1.0607 1.0607 1.0607 0 0 1 1.0607 -1.0607" fill="url(#b)"/>
    <use width="744.09448" height="1052.3622" xlink:href="#a"/>
    <use transform="translate(0 3.182)" width="744.09448" height="1052.3622" xlink:href="#a"/>
    <use transform="translate(0 6.364)" width="744.09448" height="1052.3622" xlink:href="#a"/>
    <use transform="translate(0 9.5459)" width="744.09448" height="1052.3622" xlink:href="#a"/>
    <use transform="translate(0 12.728)" width="744.09448" height="1052.3622" xlink:href="#a"/>
    <use transform="translate(0 15.91)" width="744.09448" height="1052.3622" xlink:href="#a"/>
    <use transform="translate(0 19.092)" width="744.09448" height="1052.3622" xlink:href="#a"/>
    <use transform="translate(0 22.274)" width="744.09448" height="1052.3622" xlink:href="#a"/>
    <use transform="translate(0 25.456)" width="744.09448" height="1052.3622" xlink:href="#a"/>
    <use transform="translate(0 28.638)" width="744.09448" height="1052.3622" xlink:href="#a"/>
    <use transform="translate(0 31.82)" width="744.09448" height="1052.3622" xlink:href="#a"/>
    <use transform="translate(0 35.002)" width="744.09448" height="1052.3622" xlink:href="#a"/>
    <use transform="translate(0 38.184)" width="744.09448" height="1052.3622" xlink:href="#a"/>
    <use transform="translate(0 41.366)" width="744.09448" height="1052.3622" xlink:href="#a"/>
    <use transform="translate(0 44.548)" width="744.09448" height="1052.3622" xlink:href="#a"/>
    <use transform="translate(0 47.73)" width="744.09448" height="1052.3622" xlink:href="#a"/>
    <use transform="translate(0 50.912)" width="744.09448" height="1052.3622" xlink:href="#a"/>
    <use transform="translate(0 54.094)" width="744.09448" height="1052.3622" xlink:href="#a"/>
    <use transform="translate(0 57.276)" width="744.09448" height="1052.3622" xlink:href="#a"/>
    <use transform="translate(0 60.458)" width="744.09448" height="1052.3622" xlink:href="#a"/>
    <use transform="translate(0 63.64)" width="744.09448" height="1052.3622" xlink:href="#a"/>
    <use transform="translate(0 66.822)" width="744.09448" height="1052.3622" xlink:href="#a"/>
    <use transform="translate(0 70.004)" width="744.09448" height="1052.3622" xlink:href="#a"/>
    <use transform="translate(0 73.186)" width="744.09448" height="1052.3622" xlink:href="#a"/>
    <use transform="translate(0 76.368)" width="744.09448" height="1052.3622" xlink:href="#a"/>
    <use transform="translate(0 79.55)" width="744.09448" height="1052.3622" xlink:href="#a"/>
    <use transform="translate(0 82.731)" width="744.09448" height="1052.3622" xlink:href="#a"/>
    <use transform="translate(0 85.913)" width="744.09448" height="1052.3622" xlink:href="#a"/>
    <use transform="translate(0 89.095)" width="744.09448" height="1052.3622" xlink:href="#a"/>
    <use transform="translate(0 92.277)" width="744.09448" height="1052.3622" xlink:href="#a"/>
    <use transform="translate(0 95.459)" width="744.09448" height="1052.3622" xlink:href="#a"/>
    <use transform="translate(0 98.641)" width="744.09448" height="1052.3622" xlink:href="#a"/>
   </g>
  </g>
  <g transform="translate(339.11)">
   <path d="m72.832 46.856h48.79v104.65h-48.79z" fill="url(#c)"/>
   <path d="m68.236 47.563h4.2426a1.0607 1.0607 0 0 1 1.0607 1.0607 1.0607 1.0607 0 0 1 -1.0607 1.0607h-4.2426a1.0607 1.0607 0 0 1 -1.0607 -1.0607 1.0607 1.0607 0 0 1 1.0607 -1.0607" fill="url(#b)"/>
   <use width="744.09448" height="1052.3622" xlink:href="#a"/>
   <use transform="translate(0 3.182)" width="744.09448" height="1052.3622" xlink:href="#a"/>
   <use transform="translate(0 6.364)" width="744.09448" height="1052.3622" xlink:href="#a"/>
   <use transform="translate(0 9.5459)" width="744.09448" height="1052.3622" xlink:href="#a"/>
   <use transform="translate(0 12.728)" width="744.09448" height="1052.3622" xlink:href="#a"/>
   <use transform="translate(0 15.91)" width="744.09448" height="1052.3622" xlink:href="#a"/>
   <use transform="translate(0 19.092)" width="744.09448" height="1052.3622" xlink:href="#a"/>
   <use transform="translate(0 22.274)" width="744.09448" height="1052.3622" xlink:href="#a"/>
   <use transform="translate(0 25.456)" width="744.09448" height="1052.3622" xlink:href="#a"/>
   <use transform="translate(0 28.638)" width="744.09448" height="1052.3622" xlink:href="#a"/>
   <use transform="translate(0 31.82)" width="744.09448" height="1052.3622" xlink:href="#a"/>
   <use transform="translate(0 35.002)" width="744.09448" height="1052.3622" xlink:href="#a"/>
   <use transform="translate(0 38.184)" width="744.09448" height="1052.3622" xlink:href="#a"/>
   <use transform="translate(0 41.366)" width="744.09448" height="1052.3622" xlink:href="#a"/>
   <use transform="translate(0 44.548)" width="744.09448" height="1052.3622" xlink:href="#a"/>
   <use transform="translate(0 47.73)" width="744.09448" height="1052.3622" xlink:href="#a"/>
   <use transform="translate(0 50.912)" width="744.09448" height="1052.3622" xlink:href="#a"/>
   <use transform="translate(0 54.094)" width="744.09448" height="1052.3622" xlink:href="#a"/>
   <use transform="translate(0 57.276)" width="744.09448" height="1052.3622" xlink:href="#a"/>
   <use transform="translate(0 60.458)" width="744.09448" height="1052.3622" xlink:href="#a"/>
   <use transform="translate(0 63.64)" width="744.09448" height="1052.3622" xlink:href="#a"/>
   <use transform="translate(0 66.822)" width="744.09448" height="1052.3622" xlink:href="#a"/>
   <use transform="translate(0 70.004)" width="744.09448" height="1052.3622" xlink:href="#a"/>
   <use transform="translate(0 73.186)" width="744.09448" height="1052.3622" xlink:href="#a"/>
   <use transform="translate(0 76.368)" width="744.09448" height="1052.3622" xlink:href="#a"/>
   <use transform="translate(0 79.55)" width="744.09448" height="1052.3622" xlink:href="#a"/>
   <use transform="translate(0 82.731)" width="744.09448" height="1052.3622" xlink:href="#a"/>
   <use transform="translate(0 85.913)" width="744.09448" height="1052.3622" xlink:href="#a"/>
   <use transform="translate(0 89.095)" width="744.09448" height="1052.3622" xlink:href="#a"/>
   <use transform="translate(0 92.277)" width="744.09448" height="1052.3622" xlink:href="#a"/>
   <use transform="translate(0 95.459)" width="744.09448" height="1052.3622" xlink:href="#a"/>
   <use transform="translate(0 98.641)" width="744.09448" height="1052.3622" xlink:href="#a"/>
   <g transform="matrix(-1 0 0 1 195.16 0)">
    <path d="m68.236 47.563h4.2426a1.0607 1.0607 0 0 1 1.0607 1.0607 1.0607 1.0607 0 0 1 -1.0607 1.0607h-4.2426a1.0607 1.0607 0 0 1 -1.0607 -1.0607 1.0607 1.0607 0 0 1 1.0607 -1.0607" fill="url(#b)"/>
    <use width="744.09448" height="1052.3622" xlink:href="#a"/>
    <use transform="translate(0 3.182)" width="744.09448" height="1052.3622" xlink:href="#a"/>
    <use transform="translate(0 6.364)" width="744.09448" height="1052.3622" xlink:href="#a"/>
    <use transform="translate(0 9.5459)" width="744.09448" height="1052.3622" xlink:href="#a"/>
    <use transform="translate(0 12.728)" width="744.09448" height="1052.3622" xlink:href="#a"/>
    <use transform="translate(0 15.91)" width="744.09448" height="1052.3622" xlink:href="#a"/>
    <use transform="translate(0 19.092)" width="744.09448" height="1052.3622" xlink:href="#a"/>
    <use transform="translate(0 22.274)" width="744.09448" height="1052.3622" xlink:href="#a"/>
    <use transform="translate(0 25.456)" width="744.09448" height="1052.3622" xlink:href="#a"/>
    <use transform="translate(0 28.638)" width="744.09448" height="1052.3622" xlink:href="#a"/>
    <use transform="translate(0 31.82)" width="744.09448" height="1052.3622" xlink:href="#a"/>
    <use transform="translate(0 35.002)" width="744.09448" height="1052.3622" xlink:href="#a"/>
    <use transform="translate(0 38.184)" width="744.09448" height="1052.3622" xlink:href="#a"/>
    <use transform="translate(0 41.366)" width="744.09448" height="1052.3622" xlink:href="#a"/>
    <use transform="translate(0 44.548)" width="744.09448" height="1052.3622" xlink:href="#a"/>
    <use transform="translate(0 47.73)" width="744.09448" height="1052.3622" xlink:href="#a"/>
    <use transform="translate(0 50.912)" width="744.09448" height="1052.3622" xlink:href="#a"/>
    <use transform="translate(0 54.094)" width="744.09448" height="1052.3622" xlink:href="#a"/>
    <use transform="translate(0 57.276)" width="744.09448" height="1052.3622" xlink:href="#a"/>
    <use transform="translate(0 60.458)" width="744.09448" height="1052.3622" xlink:href="#a"/>
    <use transform="translate(0 63.64)" width="744.09448" height="1052.3622" xlink:href="#a"/>
    <use transform="translate(0 66.822)" width="744.09448" height="1052.3622" xlink:href="#a"/>
    <use transform="translate(0 70.004)" width="744.09448" height="1052.3622" xlink:href="#a"/>
    <use transform="translate(0 73.186)" width="744.09448" height="1052.3622" xlink:href="#a"/>
    <use transform="translate(0 76.368)" width="744.09448" height="1052.3622" xlink:href="#a"/>
    <use transform="translate(0 79.55)" width="744.09448" height="1052.3622" xlink:href="#a"/>
    <use transform="translate(0 82.731)" width="744.09448" height="1052.3622" xlink:href="#a"/>
    <use transform="translate(0 85.913)" width="744.09448" height="1052.3622" xlink:href="#a"/>
    <use transform="translate(0 89.095)" width="744.09448" height="1052.3622" xlink:href="#a"/>
    <use transform="translate(0 92.277)" width="744.09448" height="1052.3622" xlink:href="#a"/>
    <use transform="translate(0 95.459)" width="744.09448" height="1052.3622" xlink:href="#a"/>
    <use transform="translate(0 98.641)" width="744.09448" height="1052.3622" xlink:href="#a"/>
   </g>
   <g transform="translate(204)">
    <path d="m72.832 46.856h48.79v104.65h-48.79z" fill="url(#c)"/>
    <path d="m68.236 47.563h4.2426a1.0607 1.0607 0 0 1 1.0607 1.0607 1.0607 1.0607 0 0 1 -1.0607 1.0607h-4.2426a1.0607 1.0607 0 0 1 -1.0607 -1.0607 1.0607 1.0607 0 0 1 1.0607 -1.0607" fill="url(#b)"/>
    <use width="744.09448" height="1052.3622" xlink:href="#a"/>
    <use transform="translate(0 3.182)" width="744.09448" height="1052.3622" xlink:href="#a"/>
    <use transform="translate(0 6.364)" width="744.09448" height="1052.3622" xlink:href="#a"/>
    <use transform="translate(0 9.5459)" width="744.09448" height="1052.3622" xlink:href="#a"/>
    <use transform="translate(0 12.728)" width="744.09448" height="1052.3622" xlink:href="#a"/>
    <use transform="translate(0 15.91)" width="744.09448" height="1052.3622" xlink:href="#a"/>
    <use transform="translate(0 19.092)" width="744.09448" height="1052.3622" xlink:href="#a"/>
    <use transform="translate(0 22.274)" width="744.09448" height="1052.3622" xlink:href="#a"/>
    <use transform="translate(0 25.456)" width="744.09448" height="1052.3622" xlink:href="#a"/>
    <use transform="translate(0 28.638)" width="744.09448" height="1052.3622" xlink:href="#a"/>
    <use transform="translate(0 31.82)" width="744.09448" height="1052.3622" xlink:href="#a"/>
    <use transform="translate(0 35.002)" width="744.09448" height="1052.3622" xlink:href="#a"/>
    <use transform="translate(0 38.184)" width="744.09448" height="1052.3622" xlink:href="#a"/>
    <use transform="translate(0 41.366)" width="744.09448" height="1052.3622" xlink:href="#a"/>
    <use transform="translate(0 44.548)" width="744.09448" height="1052.3622" xlink:href="#a"/>
    <use transform="translate(0 47.73)" width="744.09448" height="1052.3622" xlink:href="#a"/>
    <use transform="translate(0 50.912)" width="744.09448" height="1052.3622" xlink:href="#a"/>
    <use transform="translate(0 54.094)" width="744.09448" height="1052.3622" xlink:href="#a"/>
    <use transform="translate(0 57.276)" width="744.09448" height="1052.3622" xlink:href="#a"/>
    <use transform="translate(0 60.458)" width="744.09448" height="1052.3622" xlink:href="#a"/>
    <use transform="translate(0 63.64)" width="744.09448" height="1052.3622" xlink:href="#a"/>
    <use transform="translate(0 66.822)" width="744.09448" height="1052.3622" xlink:href="#a"/>
    <use transform="translate(0 70.004)" width="744.09448" height="1052.3622" xlink:href="#a"/>
    <use transform="translate(0 73.186)" width="744.09448" height="1052.3622" xlink:href="#a"/>
    <use transform="translate(0 76.368)" width="744.09448" height="1052.3622" xlink:href="#a"/>
    <use transform="translate(0 79.55)" width="744.09448" height="1052.3622" xlink:href="#a"/>
    <use transform="translate(0 82.731)" width="744.09448" height="1052.3622" xlink:href="#a"/>
    <use transform="translate(0 85.913)" width="744.09448" height="1052.3622" xlink:href="#a"/>
    <use transform="translate(0 89.095)" width="744.09448" height="1052.3622" xlink:href="#a"/>
    <use transform="translate(0 92.277)" width="744.09448" height="1052.3622" xlink:href="#a"/>
    <use transform="translate(0 95.459)" width="744.09448" height="1052.3622" xlink:href="#a"/>
    <use transform="translate(0 98.641)" width="744.09448" height="1052.3622" xlink:href="#a"/>
    <g transform="matrix(-1 0 0 1 195.16 0)">
     <path d="m68.236 47.563h4.2426a1.0607 1.0607 0 0 1 1.0607 1.0607 1.0607 1.0607 0 0 1 -1.0607 1.0607h-4.2426a1.0607 1.0607 0 0 1 -1.0607 -1.0607 1.0607 1.0607 0 0 1 1.0607 -1.0607" fill="url(#b)"/>
     <use width="744.09448" height="1052.3622" xlink:href="#a"/>
     <use transform="translate(0 3.182)" width="744.09448" height="1052.3622" xlink:href="#a"/>
     <use transform="translate(0 6.364)" width="744.09448" height="1052.3622" xlink:href="#a"/>
     <use transform="translate(0 9.5459)" width="744.09448" height="1052.3622" xlink:href="#a"/>
     <use transform="translate(0 12.728)" width="744.09448" height="1052.3622" xlink:href="#a"/>
     <use transform="translate(0 15.91)" width="744.09448" height="1052.3622" xlink:href="#a"/>
     <use transform="translate(0 19.092)" width="744.09448" height="1052.3622" xlink:href="#a"/>
     <use transform="translate(0 22.274)" width="744.09448" height="1052.3622" xlink:href="#a"/>
     <use transform="translate(0 25.456)" width="744.09448" height="1052.3622" xlink:href="#a"/>
     <use transform="translate(0 28.638)" width="744.09448" height="1052.3622" xlink:href="#a"/>
     <use transform="translate(0 31.82)" width="744.09448" height="1052.3622" xlink:href="#a"/>
     <use transform="translate(0 35.002)" width="744.09448" height="1052.3622" xlink:href="#a"/>
     <use transform="translate(0 38.184)" width="744.09448" height="1052.3622" xlink:href="#a"/>
     <use transform="translate(0 41.366)" width="744.09448" height="1052.3622" xlink:href="#a"/>
     <use transform="translate(0 44.548)" width="744.09448" height="1052.3622" xlink:href="#a"/>
     <use transform="translate(0 47.73)" width="744.09448" height="1052.3622" xlink:href="#a"/>
     <use transform="translate(0 50.912)" width="744.09448" height="1052.3622" xlink:href="#a"/>
     <use transform="translate(0 54.094)" width="744.09448" height="1052.3622" xlink:href="#a"/>
     <use transform="translate(0 57.276)" width="744.09448" height="1052.3622" xlink:href="#a"/>
     <use transform="translate(0 60.458)" width="744.09448" height="1052.3622" xlink:href="#a"/>
     <use transform="translate(0 63.64)" width="744.09448" height="1052.3622" xlink:href="#a"/>
     <use transform="translate(0 66.822)" width="744.09448" height="1052.3622" xlink:href="#a"/>
     <use transform="translate(0 70.004)" width="744.09448" height="1052.3622" xlink:href="#a"/>
     <use transform="translate(0 73.186)" width="744.09448" height="1052.3622" xlink:href="#a"/>
     <use transform="translate(0 76.368)" width="744.09448" height="1052.3622" xlink:href="#a"/>
     <use transform="translate(0 79.55)" width="744.09448" height="1052.3622" xlink:href="#a"/>
     <use transform="translate(0 82.731)" width="744.09448" height="1052.3622" xlink:href="#a"/>
     <use transform="translate(0 85.913)" width="744.09448" height="1052.3622" xlink:href="#a"/>
     <use transform="translate(0 89.095)" width="744.09448" height="1052.3622" xlink:href="#a"/>
     <use transform="translate(0 92.277)" width="744.09448" height="1052.3622" xlink:href="#a"/>
     <use transform="translate(0 95.459)" width="744.09448" height="1052.3622" xlink:href="#a"/>
     <use transform="translate(0 98.641)" width="744.09448" height="1052.3622" xlink:href="#a"/>
    </g>
   </g>
   <g transform="translate(136)">
    <path d="m72.832 46.856h48.79v104.65h-48.79z" fill="url(#c)"/>
    <path d="m68.236 47.563h4.2426a1.0607 1.0607 0 0 1 1.0607 1.0607 1.0607 1.0607 0 0 1 -1.0607 1.0607h-4.2426a1.0607 1.0607 0 0 1 -1.0607 -1.0607 1.0607 1.0607 0 0 1 1.0607 -1.0607" fill="url(#b)"/>
    <use width="744.09448" height="1052.3622" xlink:href="#a"/>
    <use transform="translate(0 3.182)" width="744.09448" height="1052.3622" xlink:href="#a"/>
    <use transform="translate(0 6.364)" width="744.09448" height="1052.3622" xlink:href="#a"/>
    <use transform="translate(0 9.5459)" width="744.09448" height="1052.3622" xlink:href="#a"/>
    <use transform="translate(0 12.728)" width="744.09448" height="1052.3622" xlink:href="#a"/>
    <use transform="translate(0 15.91)" width="744.09448" height="1052.3622" xlink:href="#a"/>
    <use transform="translate(0 19.092)" width="744.09448" height="1052.3622" xlink:href="#a"/>
    <use transform="translate(0 22.274)" width="744.09448" height="1052.3622" xlink:href="#a"/>
    <use transform="translate(0 25.456)" width="744.09448" height="1052.3622" xlink:href="#a"/>
    <use transform="translate(0 28.638)" width="744.09448" height="1052.3622" xlink:href="#a"/>
    <use transform="translate(0 31.82)" width="744.09448" height="1052.3622" xlink:href="#a"/>
    <use transform="translate(0 35.002)" width="744.09448" height="1052.3622" xlink:href="#a"/>
    <use transform="translate(0 38.184)" width="744.09448" height="1052.3622" xlink:href="#a"/>
    <use transform="translate(0 41.366)" width="744.09448" height="1052.3622" xlink:href="#a"/>
    <use transform="translate(0 44.548)" width="744.09448" height="1052.3622" xlink:href="#a"/>
    <use transform="translate(0 47.73)" width="744.09448" height="1052.3622" xlink:href="#a"/>
    <use transform="translate(0 50.912)" width="744.09448" height="1052.3622" xlink:href="#a"/>
    <use transform="translate(0 54.094)" width="744.09448" height="1052.3622" xlink:href="#a"/>
    <use transform="translate(0 57.276)" width="744.09448" height="1052.3622" xlink:href="#a"/>
    <use transform="translate(0 60.458)" width="744.09448" height="1052.3622" xlink:href="#a"/>
    <use transform="translate(0 63.64)" width="744.09448" height="1052.3622" xlink:href="#a"/>
    <use transform="translate(0 66.822)" width="744.09448" height="1052.3622" xlink:href="#a"/>
    <use transform="translate(0 70.004)" width="744.09448" height="1052.3622" xlink:href="#a"/>
    <use transform="translate(0 73.186)" width="744.09448" height="1052.3622" xlink:href="#a"/>
    <use transform="translate(0 76.368)" width="744.09448" height="1052.3622" xlink:href="#a"/>
    <use transform="translate(0 79.55)" width="744.09448" height="1052.3622" xlink:href="#a"/>
    <use transform="translate(0 82.731)" width="744.09448" height="1052.3622" xlink:href="#a"/>
    <use transform="translate(0 85.913)" width="744.09448" height="1052.3622" xlink:href="#a"/>
    <use transform="translate(0 89.095)" width="744.09448" height="1052.3622" xlink:href="#a"/>
    <use transform="translate(0 92.277)" width="744.09448" height="1052.3622" xlink:href="#a"/>
    <use transform="translate(0 95.459)" width="744.09448" height="1052.3622" xlink:href="#a"/>
    <use transform="translate(0 98.641)" width="744.09448" height="1052.3622" xlink:href="#a"/>
    <g transform="matrix(-1 0 0 1 195.16 0)">
     <path d="m68.236 47.563h4.2426a1.0607 1.0607 0 0 1 1.0607 1.0607 1.0607 1.0607 0 0 1 -1.0607 1.0607h-4.2426a1.0607 1.0607 0 0 1 -1.0607 -1.0607 1.0607 1.0607 0 0 1 1.0607 -1.0607" fill="url(#b)"/>
     <use width="744.09448" height="1052.3622" xlink:href="#a"/>
     <use transform="translate(0 3.182)" width="744.09448" height="1052.3622" xlink:href="#a"/>
     <use transform="translate(0 6.364)" width="744.09448" height="1052.3622" xlink:href="#a"/>
     <use transform="translate(0 9.5459)" width="744.09448" height="1052.3622" xlink:href="#a"/>
     <use transform="translate(0 12.728)" width="744.09448" height="1052.3622" xlink:href="#a"/>
     <use transform="translate(0 15.91)" width="744.09448" height="1052.3622" xlink:href="#a"/>
     <use transform="translate(0 19.092)" width="744.09448" height="1052.3622" xlink:href="#a"/>
     <use transform="translate(0 22.274)" width="744.09448" height="1052.3622" xlink:href="#a"/>
     <use transform="translate(0 25.456)" width="744.09448" height="1052.3622" xlink:href="#a"/>
     <use transform="translate(0 28.638)" width="744.09448" height="1052.3622" xlink:href="#a"/>
     <use transform="translate(0 31.82)" width="744.09448" height="1052.3622" xlink:href="#a"/>
     <use transform="translate(0 35.002)" width="744.09448" height="1052.3622" xlink:href="#a"/>
     <use transform="translate(0 38.184)" width="744.09448" height="1052.3622" xlink:href="#a"/>
     <use transform="translate(0 41.366)" width="744.09448" height="1052.3622" xlink:href="#a"/>
     <use transform="translate(0 44.548)" width="744.09448" height="1052.3622" xlink:href="#a"/>
     <use transform="translate(0 47.73)" width="744.09448" height="1052.3622" xlink:href="#a"/>
     <use transform="translate(0 50.912)" width="744.09448" height="1052.3622" xlink:href="#a"/>
     <use transform="translate(0 54.094)" width="744.09448" height="1052.3622" xlink:href="#a"/>
     <use transform="translate(0 57.276)" width="744.09448" height="1052.3622" xlink:href="#a"/>
     <use transform="translate(0 60.458)" width="744.09448" height="1052.3622" xlink:href="#a"/>
     <use transform="translate(0 63.64)" width="744.09448" height="1052.3622" xlink:href="#a"/>
     <use transform="translate(0 66.822)" width="744.09448" height="1052.3622" xlink:href="#a"/>
     <use transform="translate(0 70.004)" width="744.09448" height="1052.3622" xlink:href="#a"/>
     <use transform="translate(0 73.186)" width="744.09448" height="1052.3622" xlink:href="#a"/>
     <use transform="translate(0 76.368)" width="744.09448" height="1052.3622" xlink:href="#a"/>
     <use transform="translate(0 79.55)" width="744.09448" height="1052.3622" xlink:href="#a"/>
     <use transform="translate(0 82.731)" width="744.09448" height="1052.3622" xlink:href="#a"/>
     <use transform="translate(0 85.913)" width="744.09448" height="1052.3622" xlink:href="#a"/>
     <use transform="translate(0 89.095)" width="744.09448" height="1052.3622" xlink:href="#a"/>
     <use transform="translate(0 92.277)" width="744.09448" height="1052.3622" xlink:href="#a"/>
     <use transform="translate(0 95.459)" width="744.09448" height="1052.3622" xlink:href="#a"/>
     <use transform="translate(0 98.641)" width="744.09448" height="1052.3622" xlink:href="#a"/>
    </g>
   </g>
   <g transform="translate(68)">
    <path d="m72.832 46.856h48.79v104.65h-48.79z" fill="url(#c)"/>
    <path d="m68.236 47.563h4.2426a1.0607 1.0607 0 0 1 1.0607 1.0607 1.0607 1.0607 0 0 1 -1.0607 1.0607h-4.2426a1.0607 1.0607 0 0 1 -1.0607 -1.0607 1.0607 1.0607 0 0 1 1.0607 -1.0607" fill="url(#b)"/>
    <use width="744.09448" height="1052.3622" xlink:href="#a"/>
    <use transform="translate(0 3.182)" width="744.09448" height="1052.3622" xlink:href="#a"/>
    <use transform="translate(0 6.364)" width="744.09448" height="1052.3622" xlink:href="#a"/>
    <use transform="translate(0 9.5459)" width="744.09448" height="1052.3622" xlink:href="#a"/>
    <use transform="translate(0 12.728)" width="744.09448" height="1052.3622" xlink:href="#a"/>
    <use transform="translate(0 15.91)" width="744.09448" height="1052.3622" xlink:href="#a"/>
    <use transform="translate(0 19.092)" width="744.09448" height="1052.3622" xlink:href="#a"/>
    <use transform="translate(0 22.274)" width="744.09448" height="1052.3622" xlink:href="#a"/>
    <use transform="translate(0 25.456)" width="744.09448" height="1052.3622" xlink:href="#a"/>
    <use transform="translate(0 28.638)" width="744.09448" height="1052.3622" xlink:href="#a"/>
    <use transform="translate(0 31.82)" width="744.09448" height="1052.3622" xlink:href="#a"/>
    <use transform="translate(0 35.002)" width="744.09448" height="1052.3622" xlink:href="#a"/>
    <use transform="translate(0 38.184)" width="744.09448" height="1052.3622" xlink:href="#a"/>
    <use transform="translate(0 41.366)" width="744.09448" height="1052.3622" xlink:href="#a"/>
    <use transform="translate(0 44.548)" width="744.09448" height="1052.3622" xlink:href="#a"/>
    <use transform="translate(0 47.73)" width="744.09448" height="1052.3622" xlink:href="#a"/>
    <use transform="translate(0 50.912)" width="744.09448" height="1052.3622" xlink:href="#a"/>
    <use transform="translate(0 54.094)" width="744.09448" height="1052.3622" xlink:href="#a"/>
    <use transform="translate(0 57.276)" width="744.09448" height="1052.3622" xlink:href="#a"/>
    <use transform="translate(0 60.458)" width="744.09448" height="1052.3622" xlink:href="#a"/>
    <use transform="translate(0 63.64)" width="744.09448" height="1052.3622" xlink:href="#a"/>
    <use transform="translate(0 66.822)" width="744.09448" height="1052.3622" xlink:href="#a"/>
    <use transform="translate(0 70.004)" width="744.09448" height="1052.3622" xlink:href="#a"/>
    <use transform="translate(0 73.186)" width="744.09448" height="1052.3622" xlink:href="#a"/>
    <use transform="translate(0 76.368)" width="744.09448" height="1052.3622" xlink:href="#a"/>
    <use transform="translate(0 79.55)" width="744.09448" height="1052.3622" xlink:href="#a"/>
    <use transform="translate(0 82.731)" width="744.09448" height="1052.3622" xlink:href="#a"/>
    <use transform="translate(0 85.913)" width="744.09448" height="1052.3622" xlink:href="#a"/>
    <use transform="translate(0 89.095)" width="744.09448" height="1052.3622" xlink:href="#a"/>
    <use transform="translate(0 92.277)" width="744.09448" height="1052.3622" xlink:href="#a"/>
    <use transform="translate(0 95.459)" width="744.09448" height="1052.3622" xlink:href="#a"/>
    <use transform="translate(0 98.641)" width="744.09448" height="1052.3622" xlink:href="#a"/>
    <g transform="matrix(-1 0 0 1 195.16 0)">
     <path d="m68.236 47.563h4.2426a1.0607 1.0607 0 0 1 1.0607 1.0607 1.0607 1.0607 0 0 1 -1.0607 1.0607h-4.2426a1.0607 1.0607 0 0 1 -1.0607 -1.0607 1.0607 1.0607 0 0 1 1.0607 -1.0607" fill="url(#b)"/>
     <use width="744.09448" height="1052.3622" xlink:href="#a"/>
     <use transform="translate(0 3.182)" width="744.09448" height="1052.3622" xlink:href="#a"/>
     <use transform="translate(0 6.364)" width="744.09448" height="1052.3622" xlink:href="#a"/>
     <use transform="translate(0 9.5459)" width="744.09448" height="1052.3622" xlink:href="#a"/>
     <use transform="translate(0 12.728)" width="744.09448" height="1052.3622" xlink:href="#a"/>
     <use transform="translate(0 15.91)" width="744.09448" height="1052.3622" xlink:href="#a"/>
     <use transform="translate(0 19.092)" width="744.09448" height="1052.3622" xlink:href="#a"/>
     <use transform="translate(0 22.274)" width="744.09448" height="1052.3622" xlink:href="#a"/>
     <use transform="translate(0 25.456)" width="744.09448" height="1052.3622" xlink:href="#a"/>
     <use transform="translate(0 28.638)" width="744.09448" height="1052.3622" xlink:href="#a"/>
     <use transform="translate(0 31.82)" width="744.09448" height="1052.3622" xlink:href="#a"/>
     <use transform="translate(0 35.002)" width="744.09448" height="1052.3622" xlink:href="#a"/>
     <use transform="translate(0 38.184)" width="744.09448" height="1052.3622" xlink:href="#a"/>
     <use transform="translate(0 41.366)" width="744.09448" height="1052.3622" xlink:href="#a"/>
     <use transform="translate(0 44.548)" width="744.09448" height="1052.3622" xlink:href="#a"/>
     <use transform="translate(0 47.73)" width="744.09448" height="1052.3622" xlink:href="#a"/>
     <use transform="translate(0 50.912)" width="744.09448" height="1052.3622" xlink:href="#a"/>
     <use transform="translate(0 54.094)" width="744.09448" height="1052.3622" xlink:href="#a"/>
     <use transform="translate(0 57.276)" width="744.09448" height="1052.3622" xlink:href="#a"/>
     <use transform="translate(0 60.458)" width="744.09448" height="1052.3622" xlink:href="#a"/>
     <use transform="translate(0 63.64)" width="744.09448" height="1052.3622" xlink:href="#a"/>
     <use transform="translate(0 66.822)" width="744.09448" height="1052.3622" xlink:href="#a"/>
     <use transform="translate(0 70.004)" width="744.09448" height="1052.3622" xlink:href="#a"/>
     <use transform="translate(0 73.186)" width="744.09448" height="1052.3622" xlink:href="#a"/>
     <use transform="translate(0 76.368)" width="744.09448" height="1052.3622" xlink:href="#a"/>
     <use transform="translate(0 79.55)" width="744.09448" height="1052.3622" xlink:href="#a"/>
     <use transform="translate(0 82.731)" width="744.09448" height="1052.3622" xlink:href="#a"/>
     <use transform="translate(0 85.913)" width="744.09448" height="1052.3622" xlink:href="#a"/>
     <use transform="translate(0 89.095)" width="744.09448" height="1052.3622" xlink:href="#a"/>
     <use transform="translate(0 92.277)" width="744.09448" height="1052.3622" xlink:href="#a"/>
     <use transform="translate(0 95.459)" width="744.09448" height="1052.3622" xlink:href="#a"/>
     <use transform="translate(0 98.641)" width="744.09448" height="1052.3622" xlink:href="#a"/>
    </g>
   </g>
  </g>
 </g>
</svg>
