<?xml version="1.0" encoding="UTF-8"?>
<!DOCTYPE svg  PUBLIC '-//W3C//DTD SVG 1.1//EN'  'http://www.w3.org/Graphics/SVG/1.1/DTD/svg11.dtd'>
<svg enable-background="new 0 0 95.2 166.5" version="1.1" viewBox="0 0 95.2 166.5" xml:space="preserve" xmlns="http://www.w3.org/2000/svg">
<g clip-rule="evenodd" fill-rule="evenodd">
		<linearGradient id="v" x1="18.569" x2="174.01" y1="-1.6953" y2="-1.6953" gradientTransform="matrix(.3924 .9198 -.9198 .3924 -.00041056 .00035745)" gradientUnits="userSpaceOnUse">
		<stop stop-color="#696250" offset="0"/>
		<stop stop-color="#4A4637" offset="1"/>
	</linearGradient>
	<path d="m79.7 12.3l0.45 21.9c0.333 16 0.483 26.267 0.449 30.8-0.066 7.267-0.066 41.1 0 101.5h-80.599c0.467-4.366 0.7-10.184 0.7-17.45 0.667-59.666 1-93.5 1-101.5v-36.05h10.25l30.1 0.1h4.4l33.2-0.05 0.05 0.75zm-3.9 3.95c0.033 2 0.15 7.317 0.351 15.95 0.199 9.6 0.3 15.033 0.3 16.3v12.6c-17.601 0.267-32.851 0.4-45.751 0.4-5.233 0-13.35-0.133-24.35-0.4l0.35-45.2 37.75-0.35c2.066 0 7.6 0.1 16.6 0.3 7.733 0.2 12.65 0.333 14.75 0.4zm-69.95 45.35v0.45h0.25c0.1 0 8.433 0.117 25 0.35 5.5 0 20.833-0.117 46-0.35h0.25v-13.15c0-1.867-0.216-12.833-0.649-32.9l-0.05-0.25h-0.4v-0.45h-0.251c-18.033-0.466-28.7-0.7-32-0.7l-38.25 0.35-0.3 46.4-0.05 0.25h0.45zm24.2-21.9l-0.05 0.3 22.7 1 0.149-5.65c0-0.7-0.083-2.067-0.25-4.1l-0.3-2.8h-0.7l-0.05-0.75h-0.249v-0.25l-14.25-0.05c-2.1-0.033-3.983-0.033-5.65 0l-1.9 0.1 0.05 11.95h0.25v0.25h0.25zm4.1 5.55c-0.167-0.233-0.316-0.483-0.45-0.75l-0.45-1.1h-3.3c-0.267 0.3-0.534 0.6-0.8 0.9-0.533 0.667-0.75 1.117-0.65 1.35v0.05c-0.033 0.133-0.033 0.233 0 0.3 0 0.033 0.017 0.067 0.05 0.1l-0.05 0.1c-0.1 0.466-0.1 0.816 0 1.05 0.133 0.367 1.533 0.633 4.2 0.8 1.767 1.034 5.117 1.6 10.05 1.7 3.167 0.067 5.816-0.2 7.95-0.8 2.033-0.567 2.916-1.233 2.649-2-0.8-1.7-1.267-2.733-1.399-3.1v-0.1l-0.2 0.05c0-0.033 0.017-0.066 0.05-0.1h-3.8v-0.05h-0.05c-0.066 0.3-0.233 0.583-0.5 0.85-0.6 0.567-1.467 0.85-2.6 0.85-2.8 0.033-5.067 0.033-6.8 0s-3.033-0.067-3.9-0.1zm-4.1 45.6l-0.05 0.3 22.7 1 0.149-5.65c0-0.7-0.083-2.066-0.25-4.1l-0.3-2.8h-0.7l-0.05-0.75h-0.25v-0.25c-6.133 0-10.883-0.033-14.25-0.1-2.1-0.033-3.983-0.017-5.65 0.05l-1.9 0.1 0.05 11.95h0.25v0.25h0.251zm2.65 8.35c1.767 1.033 5.117 1.6 10.05 1.7 3.167 0.066 5.816-0.2 7.95-0.801 2.033-0.566 2.916-1.233 2.649-2-0.8-1.733-1.267-2.767-1.399-3.1v-0.1l-0.25 0.1c0.033-0.066 0.066-0.134 0.1-0.2h-3.85c-0.066 0.3-0.233 0.584-0.5 0.851-0.6 0.566-1.467 0.85-2.6 0.85-2.8 0.033-5.067 0.033-6.8 0s-3.033-0.066-3.9-0.1c-0.167-0.233-0.316-0.483-0.45-0.75l-0.45-1.101h-3.3c-0.267 0.3-0.534 0.601-0.8 0.9-0.533 0.666-0.75 1.116-0.65 1.35v0.05c-0.033 0.134-0.033 0.233 0 0.301 0 0.033 0.017 0.066 0.05 0.1l-0.05 0.1c-0.1 0.467-0.1 0.817 0 1.051 0.133 0.365 1.533 0.631 4.2 0.798zm43.1-33.55c0.033 2.033 0.15 7.367 0.351 16 0.199 9.567 0.3 14.984 0.3 16.25 0 1.233-0.117 5.466-0.351 12.699l-45.4 0.25c-6.6 0-14.934-0.116-25-0.35l0.95-44.5 69.15-0.35zm0.45-0.5v-0.45l-70.5 0.35-1 45.95h0.45v0.2l-0.05 0.25h0.25c0.133 0 8.7 0.116 25.7 0.35l45.9-0.25v-0.25c0.233-6.767 0.35-11.1 0.35-13 0-1.866-0.216-12.833-0.649-32.9l-0.05-0.25h-0.401zm0 49v-0.4h-0.25c-18.934-0.333-30.033-0.5-33.3-0.5h-36.6l-1.35 49.15 0.25 0.05h0.15v0.399h0.25c0.133 0 8.7 0.117 25.7 0.351 5.5 0 20.95-0.117 46.35-0.351h0.25v-0.25c-0.033-0.066-0.101-2.267-0.2-6.6-0.1-4.434-0.15-7.316-0.15-8.65 0-1.899-0.216-12.883-0.649-32.949l-0.05-0.25h-0.401zm-0.45 0.5c0.033 1.966 0.15 7.3 0.351 16 0.199 9.566 0.3 14.983 0.3 16.25 0 2.833 0.1 7.85 0.3 15.05-25.467 0.2-40.817 0.3-46.05 0.3-14.3-0.2-22.633-0.3-25-0.3l1.299-47.75h36.1c5.233 0 16.133 0.15 32.7 0.45zm-24.5 14.7v-0.25c-6.133 0-10.883-0.033-14.25-0.1-2.1-0.033-3.983-0.017-5.65 0.05l-1.9 0.101 0.05 11.949h0.25v0.25h0.25l-0.05 0.3 22.7 1 0.15-5.65c0-0.7-0.083-2.066-0.25-4.1l-0.3-2.801h-0.7l-0.05-0.75h-0.25zm-18.6 20.35c1.767 1.033 5.117 1.6 10.05 1.7 3.167 0.066 5.816-0.2 7.95-0.801 2.033-0.566 2.916-1.233 2.649-2-0.8-1.733-1.267-2.767-1.399-3.1v-0.1l-0.25 0.1c0.033-0.066 0.066-0.134 0.1-0.2h-3.85c-0.066 0.3-0.233 0.584-0.5 0.851-0.6 0.566-1.467 0.85-2.6 0.85-2.8 0.033-5.067 0.033-6.8 0s-3.033-0.066-3.9-0.1c-0.167-0.233-0.316-0.483-0.45-0.75l-0.45-1.101h-3.3c-0.267 0.3-0.534 0.601-0.8 0.9-0.533 0.666-0.75 1.116-0.65 1.35v0.05c-0.033 0.134-0.033 0.233 0 0.301 0 0.033 0.017 0.066 0.05 0.1l-0.05 0.1c-0.1 0.467-0.1 0.817 0 1.051 0.133 0.37 1.533 0.63 4.2 0.8z" fill="url(#v)"/>
		<linearGradient id="w" x1="10.075" x2="47.823" y1="-41.528" y2="-41.528" gradientTransform="matrix(.3921 .9199 -.9199 .3921 .00024891 -.00058466)" gradientUnits="userSpaceOnUse">
		<stop stop-color="#696250" offset="0"/>
		<stop stop-color="#4A4637" offset="1"/>
	</linearGradient>
	<path d="m93.7 0.5l-14 11.8-0.05-0.75c-9.101-0.233-20.983-0.466-35.65-0.7-9.167-0.133-18.633-0.117-28.4 0.05l-11.9 0.3c1.1 0.1 3.85 0.2 8.25 0.3h-10.25l19.5-11.5 72.5 0.5z" fill="url(#w)"/>
	<path d="m75.8 16.25c-2.1-0.067-7.017-0.2-14.75-0.4-9-0.2-14.533-0.3-16.6-0.3l-37.75 0.35-0.35 45.2h-0.4l0.3-45.65 37.75-0.35c3.134 0 13.717 0.233 31.75 0.7 0 0.133 0.017 0.283 0.05 0.45zm-69.95 45.35c0.8 0.033 3.9 0.1 9.3 0.2 6.933 0.133 12.117 0.2 15.55 0.2 5.466 0 20.8-0.133 46-0.4h0.25v-13.1c0-1.9-0.233-12.817-0.7-32.75h0.4l0.05 0.25c0.434 20.067 0.649 31.033 0.649 32.9v13.15h-0.249c-25.166 0.233-40.5 0.35-46 0.35-16.567-0.233-24.9-0.35-25-0.35h-0.25v-0.45zm69.95 4.05l-69.15 0.35-0.95 44.5h-0.45l1-44.95 69.5-0.35c0 0.133 0.017 0.283 0.05 0.45zm-70.6 45.35c0.466 0 1.65 0.017 3.55 0.05l4.9 0.101c4.233 0.066 8.133 0.116 11.7 0.149h2.6c0.9 0.033 1.816 0.05 2.75 0.05l45.9-0.25v-0.25c0.233-6.767 0.351-11.083 0.351-12.949 0-1.9-0.233-12.817-0.7-32.75h0.4l0.05 0.25c0.434 20.067 0.649 31.034 0.649 32.9 0 1.9-0.116 6.233-0.35 13v0.25l-45.9 0.25c-17-0.233-25.567-0.35-25.7-0.35h-0.25l0.05-0.25v-0.2zm-0.05 51.45c1.267 0 9.783 0.1 25.55 0.3 5.466 0 20.899-0.1 46.3-0.3l0.25-0.05v-0.25c-0.2-8.267-0.3-13.351-0.3-15.25 0-1.867-0.233-12.784-0.7-32.75h0.4l0.05 0.25c0.434 20.066 0.649 31.05 0.649 32.949 0 1.334 0.051 4.217 0.15 8.65 0.1 4.333 0.167 6.533 0.2 6.6v0.25h-0.25c-25.4 0.233-40.85 0.351-46.35 0.351-17-0.233-25.567-0.351-25.7-0.351h-0.249v-0.4zm70.65-47.8c-16.566-0.301-27.467-0.45-32.7-0.45h-36.1l-1.3 47.75h-0.45l1.35-48.2h36.1c3.7 0 14.717 0.167 33.05 0.5 0 0.1 0.017 0.23 0.05 0.4z" fill="#736D57"/>
	<path d="m6.35 61.1c11 0.267 19.117 0.4 24.35 0.4 12.9 0 28.149-0.133 45.75-0.4v-12.6c0-1.267-0.101-6.7-0.3-16.3-0.2-8.633-0.317-13.95-0.351-15.95-0.033-0.167-0.05-0.317-0.05-0.45-18.032-0.467-28.615-0.7-31.749-0.7l-37.75 0.35-0.3 45.65h0.4zm69.9-45.35c0.467 19.933 0.7 30.85 0.7 32.75v13.1h-0.25c-25.2 0.267-40.534 0.4-46 0.4-3.434 0-8.617-0.067-15.55-0.2-5.4-0.1-8.5-0.167-9.3-0.2h-0.45l0.05-0.25 0.3-46.4 38.25-0.35c3.3 0 13.967 0.233 32 0.7h0.25v0.45zm-70.55 94.75c10.066 0.233 18.4 0.35 25 0.35l45.4-0.25c0.233-7.233 0.351-11.466 0.351-12.699 0-1.267-0.101-6.684-0.3-16.25-0.2-8.633-0.317-13.967-0.351-16-0.033-0.167-0.05-0.316-0.05-0.45l-69.5 0.35-1 44.95h0.45zm70.55-45.35c0.467 19.933 0.7 30.85 0.7 32.75 0 1.866-0.117 6.183-0.351 12.949v0.25l-45.899 0.25c-0.934 0-1.85-0.017-2.75-0.05h-2.6c-3.567-0.033-7.467-0.083-11.7-0.149l-4.9-0.101c-1.9-0.03-3.083-0.05-3.55-0.05h-0.45l1-45.95 70.5-0.35v0.45zm0 49c0.467 19.966 0.7 30.883 0.7 32.75 0 1.899 0.1 6.983 0.3 15.25v0.25l-0.25 0.05c-25.4 0.2-40.833 0.3-46.3 0.3-15.767-0.2-24.284-0.3-25.55-0.3h-0.15l-0.25-0.05 1.35-49.15h36.6c3.267 0 14.366 0.167 33.3 0.5h0.25v0.4zm-70.55 47.8c2.367 0 10.7 0.1 25 0.3 5.233 0 20.583-0.1 46.05-0.3-0.2-7.2-0.3-12.217-0.3-15.05 0-1.267-0.101-6.684-0.3-16.25-0.2-8.7-0.317-14.034-0.351-16-0.033-0.167-0.05-0.301-0.05-0.4-18.333-0.333-29.35-0.5-33.05-0.5h-36.099l-1.35 48.2h0.45z" fill="#454132"/>
	<path d="m11.95 11.5c-4.4-0.1-7.15-0.2-8.25-0.3l11.9-0.3c9.767-0.167 19.233-0.183 28.4-0.05 14.667 0.233 26.55 0.467 35.65 0.7l-33.2 0.05h-4.4l-30.1-0.1z" fill="#968F77"/>
		<linearGradient id="x" x1="39.889" x2="64.885" y1="5.3911" y2="5.3911" gradientTransform="matrix(.8311 .5561 -.5561 .8311 .00020969 -.00033748)" gradientUnits="userSpaceOnUse">
		<stop stop-color="#B3AFA5" offset="0"/>
		<stop stop-color="#DEDACD" offset=".1294"/>
		<stop stop-color="#A4A198" offset=".2706"/>
		<stop stop-color="#75746B" offset=".698"/>
		<stop stop-color="#79786F" offset=".7843"/>
		<stop stop-color="#84837A" offset=".8627"/>
		<stop stop-color="#97968C" offset=".9373"/>
		<stop stop-color="#ACABA0" offset="1"/>
	</linearGradient>
	<path d="m51.6 28.45l0.15 11.1-21.7 0.15h-0.25v-0.25l-0.05-11.7 1.9-0.1c1.667-0.033 3.55-0.033 5.65 0l14 0.05h0.25l0.05 0.75zm-1.85 0.75h-18.3l0.05 8.8v0.25l18.5-0.1c0.134-1.867 0.2-3.217 0.2-4.05l-0.2-4.9h-0.25z" fill="url(#x)"/>
	<path d="m29.8 39.45h-0.25l-0.05-11.95 1.9-0.1c1.667-0.033 3.55-0.033 5.65 0l14.25 0.05v0.25l-14-0.05c-2.1-0.033-3.983-0.033-5.65 0l-1.9 0.1 0.05 11.7zm1.7-1.45h0.75l17.5-0.1c0.134-1.867 0.2-3.217 0.2-4.05l-0.15-3.9-0.05-0.75h0.25l0.2 4.9c0 0.833-0.066 2.183-0.2 4.05l-18.5 0.1v-0.25zm-2.95 8.1c-0.033-0.033-0.05-0.067-0.05-0.1-0.033-0.067-0.033-0.167 0-0.3 0.333 0.6 3.667 0.917 10 0.95 3.467 0.067 6.05 0.017 7.75-0.15 2-0.2 3.366-0.583 4.1-1.15h0.025l-0.025 0.05c-1.433 1.133-5.383 1.667-11.85 1.6-6.167-0.1-9.483-0.4-9.95-0.9zm4.7-2.35c-0.2 0.167-0.367 0.367-0.5 0.6-0.1 0.133-0.15 0.267-0.15 0.4-0.067-0.2-0.017-0.45 0.15-0.75 0.067-0.067 0.133-0.15 0.2-0.25h0.3zm18.05 35.1c-6 0-10.667-0.033-14-0.1-2.1-0.033-3.983-0.017-5.65 0.05l-1.9 0.1 0.05 11.7h-0.25l-0.05-11.95 1.9-0.1c1.667-0.066 3.55-0.083 5.65-0.05 3.367 0.067 8.117 0.1 14.25 0.1v0.25zm-22.75 18.4c-0.033-0.033-0.05-0.066-0.05-0.1-0.033-0.067-0.033-0.167 0-0.301 0.333 0.601 3.667 0.917 10 0.95 3.467 0.066 6.05 0.017 7.75-0.149 2-0.2 3.366-0.584 4.1-1.15-1.433 1.167-5.383 1.717-11.85 1.65-6.167-0.1-9.483-0.4-9.95-0.9zm3.7-8.1l17.5-0.101c0.134-1.866 0.2-3.217 0.2-4.05l-0.15-3.9-0.05-0.8h0.25l0.2 4.95c0 0.833-0.066 2.184-0.2 4.05l-18.5 0.101v-0.25h0.75zm0.35 6.75c-0.067-0.2-0.017-0.45 0.15-0.75 0.067-0.067 0.133-0.15 0.2-0.25h0.3c-0.2 0.166-0.367 0.366-0.5 0.6-0.1 0.134-0.15 0.267-0.15 0.4zm-2.8 45.2h-0.25l-0.05-11.95 1.9-0.101c1.667-0.066 3.55-0.083 5.65-0.05 3.367 0.066 8.117 0.1 14.25 0.1v0.25c-6 0-10.667-0.033-14-0.1-2.1-0.033-3.983-0.017-5.65 0.05l-1.9 0.101 0.05 11.7zm1.7-1.45h0.75l17.5-0.101c0.134-1.866 0.2-3.217 0.2-4.05l-0.15-3.9-0.05-0.8h0.25l0.2 4.95c0 0.833-0.066 2.184-0.2 4.05l-18.5 0.1v-0.25zm1.75 5.75c-0.2 0.166-0.367 0.366-0.5 0.6-0.1 0.134-0.15 0.267-0.15 0.4-0.067-0.2-0.017-0.45 0.15-0.75 0.067-0.067 0.133-0.15 0.2-0.25h0.3zm17.1 1.6c-1.433 1.167-5.383 1.717-11.85 1.65-6.167-0.101-9.483-0.4-9.95-0.9-0.033-0.033-0.05-0.066-0.05-0.1-0.033-0.067-0.033-0.167 0-0.301 0.333 0.601 3.667 0.917 10 0.95 3.467 0.066 6.05 0.017 7.75-0.149 2-0.2 3.366-0.58 4.1-1.15z" fill="#DCD8CB"/>
	<path d="m51.6 28.45h0.7l0.3 2.8c0.167 2.033 0.25 3.4 0.25 4.1l-0.15 5.65-22.7-1 0.05-0.3 21.7-0.15-0.15-11.1zm-1.8 1.5l-17.6 0.05 0.05 8h-0.75l-0.05-8.8h18.3l0.05 0.75zm-16.85 13.8c0.1-0.133 0.2-0.25 0.3-0.35l0.45 1.1c0.133 0.267 0.283 0.517 0.45 0.75-0.4-0.033-0.717-0.067-0.95-0.1l0.05-0.15v-1.4l-0.3 0.15zm-0.25 4.3c1.533 0.1 3.466 0.167 5.8 0.2 6.933 0.1 10.884-0.35 11.85-1.35l1.45-1.65 0.15-1.4c0.133 0.367 0.6 1.4 1.399 3.1 0.267 0.767-0.616 1.433-2.649 2-2.134 0.6-4.784 0.867-7.95 0.8-4.933-0.1-8.283-0.667-10.05-1.7zm18.9 31.55h0.7l0.3 2.8c0.167 2.034 0.25 3.4 0.25 4.1l-0.15 5.65-22.7-1 0.05-0.301 21.7-0.149-0.15-11.1zm0.35 15.4c0.133 0.333 0.6 1.366 1.399 3.1 0.267 0.767-0.616 1.434-2.649 2-2.134 0.601-4.784 0.867-7.95 0.801-4.933-0.101-8.283-0.667-10.05-1.7 1.533 0.1 3.466 0.166 5.8 0.2 6.933 0.1 10.884-0.351 11.85-1.351l1.45-1.649 0.15-1.4zm-2.2-14.7l0.05 0.8-17.6 0.05 0.05 8h-0.75l-0.05-8.8 18.3-0.05zm-15.6 16.1c-0.4-0.034-0.717-0.067-0.95-0.101l0.05-0.149v-1.4l-0.3 0.15c0.1-0.134 0.2-0.25 0.3-0.351l0.45 1.101c0.133 0.267 0.283 0.517 0.45 0.75zm-4.1 44.95l21.7-0.149-0.15-11.1h0.7l0.3 2.801c0.167 2.033 0.25 3.399 0.25 4.1l-0.149 5.65-22.7-1 0.049-0.3zm19.75-9.75l-17.6 0.051 0.05 8h-0.75l-0.05-8.801 18.3-0.05 0.05 0.8zm-16.55 13.45l0.45 1.101c0.133 0.267 0.283 0.517 0.45 0.75-0.4-0.034-0.717-0.067-0.95-0.101l0.05-0.149v-1.4l-0.3 0.15c0.1-0.13 0.2-0.25 0.3-0.35zm18.7 0.45c0.133 0.333 0.6 1.366 1.399 3.1 0.267 0.767-0.616 1.434-2.649 2-2.134 0.601-4.784 0.867-7.95 0.801-4.933-0.101-8.283-0.667-10.05-1.7 1.533 0.1 3.466 0.166 5.8 0.2 6.933 0.1 10.884-0.351 11.85-1.351l1.45-1.649 0.15-1.4z" fill="#413D30"/>
		<linearGradient id="y" x1="38.443" x2="54.426" y1="-24.392" y2="-24.392" gradientTransform="matrix(.3926 .9197 -.9197 .3926 .00036842 1.1444e-5)" gradientUnits="userSpaceOnUse">
		<stop stop-color="#ADA99C" offset="0"/>
		<stop stop-color="#6B6960" offset="1"/>
	</linearGradient>
	<path d="m32.25 38l-0.05-8 17.6-0.05 0.15 3.9c0 0.833-0.066 2.183-0.2 4.05l-17.5 0.1z" fill="url(#y)"/>
		<linearGradient id="z" x1="48.646" x2="67.242" y1="14.811" y2="14.811" gradientTransform="matrix(.8308 .5566 -.5566 .8308 0 .00015044)" gradientUnits="userSpaceOnUse">
		<stop stop-color="#B3AFA5" offset="0"/>
		<stop stop-color="#DEDACD" offset=".1294"/>
		<stop stop-color="#A4A198" offset=".2706"/>
		<stop stop-color="#75746B" offset=".698"/>
		<stop stop-color="#79786F" offset=".7843"/>
		<stop stop-color="#84837A" offset=".8627"/>
		<stop stop-color="#97968C" offset=".9373"/>
		<stop stop-color="#ACABA0" offset="1"/>
	</linearGradient>
	<path d="m28.5 45.7v-0.05c-0.1-0.233 0.117-0.683 0.65-1.35 0.267-0.3 0.533-0.6 0.8-0.9h3.3c-0.1 0.1-0.2 0.217-0.3 0.35-0.067 0.1-0.133 0.183-0.2 0.25-0.167 0.3-0.217 0.55-0.15 0.75 0 0.1 0.05 0.183 0.15 0.25 0.067 0.033 0.217 0.083 0.45 0.15 0.233 0.033 0.55 0.067 0.95 0.1 0.867 0.033 2.167 0.067 3.9 0.1s4 0.033 6.8 0c1.133 0 2-0.283 2.6-0.85 0.267-0.267 0.434-0.55 0.5-0.85h0.05v0.05h3.8c-0.033 0.033-0.05 0.066-0.05 0.1-0.434 0.6-0.884 1.1-1.35 1.5 0 0.022-9e-3 0.039-0.025 0.05h-0.025c-0.733 0.566-2.1 0.95-4.1 1.15-1.7 0.167-4.283 0.217-7.75 0.15-6.333-0.033-9.667-0.35-10-0.95z" fill="url(#z)"/>
		<linearGradient id="aa" x1="48.95" x2="68.108" y1="15.486" y2="15.486" gradientTransform="matrix(.8312 .5559 -.5559 .8312 -8.0287e-5 -4.4405e-5)" gradientUnits="userSpaceOnUse">
		<stop stop-color="#A4A198" offset="0"/>
		<stop stop-color="#54534D" offset="1"/>
	</linearGradient>
	<path d="m32.7 48.05c-2.667-0.167-4.067-0.433-4.2-0.8-0.1-0.233-0.1-0.583 0-1.05l0.05-0.1c0.467 0.5 3.784 0.8 9.95 0.9 6.467 0.067 10.417-0.467 11.85-1.6l0.025-0.05c0.017-0.011 0.025-0.028 0.025-0.05 0.466-0.4 0.916-0.9 1.35-1.5l0.2-0.05v0.1l-0.15 1.4-1.45 1.65c-0.966 1-4.917 1.45-11.85 1.35-2.333-0.033-4.267-0.1-5.8-0.2zm0.5-2.9c-0.233-0.066-0.383-0.117-0.45-0.15-0.1-0.067-0.15-0.15-0.15-0.25 0-0.133 0.05-0.267 0.15-0.4 0.133-0.233 0.3-0.434 0.5-0.6h-0.3l0.3-0.15v1.4l-0.05 0.15z" fill="url(#aa)"/>
		<linearGradient id="ab" x1="40.77" x2="175.45" y1="-47.393" y2="-47.393" gradientTransform="matrix(.3924 .9198 -.9198 .3924 -.00011823 .00027823)" gradientUnits="userSpaceOnUse">
		<stop stop-color="#474233" offset="0"/>
		<stop stop-color="#363329" offset="1"/>
	</linearGradient>
	<path d="m79.7 12.3l14-11.8c0.666 62 1 96.5 1 103.5s0.166 21.167 0.5 42.5l-14.601 20c-0.066-60.4-0.066-94.233 0-101.5 0.034-4.533-0.116-14.8-0.449-30.8l-0.45-21.9z" fill="url(#ab)"/>
		<linearGradient id="ac" x1="68.332" x2="93.328" y1="47.903" y2="47.903" gradientTransform="matrix(.8311 .5561 -.5561 .8311 .00020969 -.00033748)" gradientUnits="userSpaceOnUse">
		<stop stop-color="#B3AFA5" offset="0"/>
		<stop stop-color="#DEDACD" offset=".1294"/>
		<stop stop-color="#A4A198" offset=".2706"/>
		<stop stop-color="#75746B" offset=".698"/>
		<stop stop-color="#79786F" offset=".7843"/>
		<stop stop-color="#84837A" offset=".8627"/>
		<stop stop-color="#97968C" offset=".9373"/>
		<stop stop-color="#ACABA0" offset="1"/>
	</linearGradient>
	<path d="m51.3 78.85h0.25l0.05 0.75 0.15 11.1-21.7 0.149h-0.25v-0.249l-0.05-11.7 1.9-0.1c1.667-0.066 3.55-0.083 5.65-0.05 3.333 0.067 8 0.1 14 0.1zm-1.55 1.45l-18.3 0.05 0.05 8.8v0.25l18.5-0.1c0.134-1.866 0.2-3.217 0.2-4.05l-0.2-4.95h-0.25z" fill="url(#ac)"/>
		<linearGradient id="ad" x1="77.114" x2="95.711" y1="57.286" y2="57.286" gradientTransform="matrix(.8308 .5566 -.5566 .8308 0 .00015044)" gradientUnits="userSpaceOnUse">
		<stop stop-color="#B3AFA5" offset="0"/>
		<stop stop-color="#DEDACD" offset=".1294"/>
		<stop stop-color="#A4A198" offset=".2706"/>
		<stop stop-color="#75746B" offset=".698"/>
		<stop stop-color="#79786F" offset=".7843"/>
		<stop stop-color="#84837A" offset=".8627"/>
		<stop stop-color="#97968C" offset=".9373"/>
		<stop stop-color="#ACABA0" offset="1"/>
	</linearGradient>
	<path d="m34.15 96.4c0.867 0.033 2.167 0.066 3.9 0.1 1.733 0.033 4 0.033 6.8 0 1.133 0 2-0.283 2.6-0.85 0.267-0.267 0.434-0.551 0.5-0.851h3.85c-0.033 0.066-0.066 0.134-0.1 0.2-0.167 0.167-0.316 0.333-0.45 0.5-0.267 0.366-0.55 0.684-0.85 0.95l-0.05 0.051c-0.733 0.566-2.1 0.95-4.1 1.15-1.7 0.166-4.283 0.216-7.75 0.149-6.333-0.033-9.667-0.35-10-0.95v-0.049c-0.1-0.233 0.117-0.684 0.65-1.35 0.267-0.3 0.533-0.601 0.8-0.9h3.3c-0.1 0.101-0.2 0.217-0.3 0.351-0.067 0.1-0.133 0.183-0.2 0.25-0.167 0.3-0.217 0.55-0.15 0.75 0 0.1 0.05 0.183 0.15 0.25 0.067 0.033 0.217 0.083 0.45 0.149 0.233 0.033 0.55 0.066 0.95 0.1z" fill="url(#ad)"/>
		<linearGradient id="p" x1="77.385" x2="96.543" y1="58.004" y2="58.004" gradientTransform="matrix(.8312 .5559 -.5559 .8312 -8.0287e-5 -4.4405e-5)" gradientUnits="userSpaceOnUse">
		<stop stop-color="#A4A198" offset="0"/>
		<stop stop-color="#54534D" offset="1"/>
	</linearGradient>
	<path d="m28.55 97.25c0.467 0.5 3.784 0.8 9.95 0.9 6.467 0.066 10.417-0.483 11.85-1.65l0.051-0.05c0.3-0.267 0.583-0.584 0.85-0.95 0.134-0.167 0.283-0.333 0.45-0.5l0.25-0.1v0.1l-0.15 1.4-1.45 1.649c-0.966 1-4.917 1.45-11.85 1.351-2.333-0.034-4.267-0.101-5.8-0.2-2.667-0.167-4.067-0.434-4.2-0.8-0.1-0.233-0.1-0.584 0-1.051l0.049-0.099zm4.65-0.95c-0.233-0.066-0.383-0.116-0.45-0.149-0.1-0.067-0.15-0.15-0.15-0.25 0-0.134 0.05-0.267 0.15-0.4 0.133-0.233 0.3-0.434 0.5-0.6h-0.3l0.3-0.15v1.4l-0.05 0.149z" fill="url(#p)"/>
		<linearGradient id="q" x1="85.486" x2="101.47" y1="-4.3105" y2="-4.3105" gradientTransform="matrix(.3926 .9197 -.9197 .3926 .00036842 1.1444e-5)" gradientUnits="userSpaceOnUse">
		<stop stop-color="#ADA99C" offset="0"/>
		<stop stop-color="#6B6960" offset="1"/>
	</linearGradient>
	<path d="m49.8 81.1l0.15 3.9c0 0.833-0.066 2.184-0.2 4.05l-17.5 0.101-0.05-8 17.6-0.051z" fill="url(#q)"/>
		<linearGradient id="r" x1="96.414" x2="121.41" y1="89.875" y2="89.875" gradientTransform="matrix(.8311 .5561 -.5561 .8311 .00020969 -.00033748)" gradientUnits="userSpaceOnUse">
		<stop stop-color="#B3AFA5" offset="0"/>
		<stop stop-color="#DEDACD" offset=".1294"/>
		<stop stop-color="#A4A198" offset=".2706"/>
		<stop stop-color="#75746B" offset=".698"/>
		<stop stop-color="#79786F" offset=".7843"/>
		<stop stop-color="#84837A" offset=".8627"/>
		<stop stop-color="#97968C" offset=".9373"/>
		<stop stop-color="#ACABA0" offset="1"/>
	</linearGradient>
	<path d="m30.05 141.35h-0.25v-0.25l-0.05-11.7 1.9-0.101c1.667-0.066 3.55-0.083 5.65-0.05 3.333 0.066 8 0.1 14 0.1h0.25l0.05 0.75 0.15 11.101-21.7 0.15zm19.7-10.55l-18.3 0.05 0.05 8.801v0.25l18.5-0.1c0.134-1.866 0.2-3.217 0.2-4.05l-0.2-4.95h-0.25z" fill="url(#r)"/>
		<linearGradient id="s" x1="131.93" x2="147.91" y1="15.516" y2="15.516" gradientTransform="matrix(.3926 .9197 -.9197 .3926 .00036842 1.1444e-5)" gradientUnits="userSpaceOnUse">
		<stop stop-color="#ADA99C" offset="0"/>
		<stop stop-color="#6B6960" offset="1"/>
	</linearGradient>
	<path d="m32.25 139.65l-0.05-8 17.6-0.051 0.15 3.9c0 0.833-0.066 2.184-0.2 4.05l-17.5 0.1z" fill="url(#s)"/>
		<linearGradient id="t" x1="105.22" x2="123.82" y1="99.242" y2="99.242" gradientTransform="matrix(.8308 .5566 -.5566 .8308 0 .00015044)" gradientUnits="userSpaceOnUse">
		<stop stop-color="#B3AFA5" offset="0"/>
		<stop stop-color="#DEDACD" offset=".1294"/>
		<stop stop-color="#A4A198" offset=".2706"/>
		<stop stop-color="#75746B" offset=".698"/>
		<stop stop-color="#79786F" offset=".7843"/>
		<stop stop-color="#84837A" offset=".8627"/>
		<stop stop-color="#97968C" offset=".9373"/>
		<stop stop-color="#ACABA0" offset="1"/>
	</linearGradient>
	<path d="m51.7 145.5c-0.167 0.167-0.316 0.333-0.45 0.5-0.267 0.366-0.55 0.684-0.85 0.95l-0.05 0.05c-0.733 0.566-2.1 0.95-4.1 1.15-1.7 0.166-4.283 0.216-7.75 0.149-6.333-0.033-9.667-0.35-10-0.95v-0.05c-0.1-0.233 0.117-0.684 0.65-1.35 0.267-0.3 0.533-0.601 0.8-0.9h3.3c-0.1 0.101-0.2 0.217-0.3 0.351-0.067 0.1-0.133 0.183-0.2 0.25-0.167 0.3-0.217 0.55-0.15 0.75 0 0.1 0.05 0.183 0.15 0.25 0.067 0.033 0.217 0.083 0.45 0.149 0.233 0.033 0.55 0.066 0.95 0.101 0.867 0.033 2.167 0.066 3.9 0.1 1.733 0.033 4 0.033 6.8 0 1.133 0 2-0.283 2.6-0.85 0.267-0.267 0.434-0.551 0.5-0.851h3.85c-0.033 0.07-0.067 0.13-0.1 0.2z" fill="url(#t)"/>
		<linearGradient id="u" x1="105.46" x2="124.62" y1="99.982" y2="99.982" gradientTransform="matrix(.8312 .5559 -.5559 .8312 -8.0287e-5 -4.4405e-5)" gradientUnits="userSpaceOnUse">
		<stop stop-color="#A4A198" offset="0"/>
		<stop stop-color="#54534D" offset="1"/>
	</linearGradient>
	<path d="m32.6 146.4c0-0.134 0.05-0.267 0.15-0.4 0.133-0.233 0.3-0.434 0.5-0.6h-0.3l0.3-0.15v1.4l-0.05 0.15c-0.233-0.066-0.383-0.116-0.45-0.149-0.1-0.07-0.15-0.15-0.15-0.25zm0.1 3.3c-2.667-0.167-4.067-0.434-4.2-0.8-0.1-0.233-0.1-0.584 0-1.051l0.05-0.1c0.467 0.5 3.784 0.8 9.95 0.9 6.467 0.066 10.417-0.483 11.85-1.65l0.051-0.05c0.3-0.267 0.583-0.584 0.85-0.95 0.134-0.167 0.283-0.333 0.45-0.5l0.25-0.1v0.1l-0.15 1.4-1.45 1.649c-0.966 1-4.917 1.45-11.85 1.351-2.334-0.03-4.268-0.1-5.801-0.2z" fill="url(#u)"/>
</g>
</svg>
