<?xml version="1.0" encoding="UTF-8" standalone="no"?>
<!-- Created with Inkscape (http://www.inkscape.org/) -->

<svg
   xmlns:dc="http://purl.org/dc/elements/1.1/"
   xmlns:cc="http://creativecommons.org/ns#"
   xmlns:rdf="http://www.w3.org/1999/02/22-rdf-syntax-ns#"
   xmlns:svg="http://www.w3.org/2000/svg"
   xmlns="http://www.w3.org/2000/svg"
   xmlns:sodipodi="http://sodipodi.sourceforge.net/DTD/sodipodi-0.dtd"
   xmlns:inkscape="http://www.inkscape.org/namespaces/inkscape"
   width="4in"
   height="3.3832729in"
   viewBox="0 0 101.59998 85.935121"
   version="1.1"
   id="svg8"
   inkscape:version="0.92.2 (5c3e80d, 2017-08-06)"
   sodipodi:docname="barrier.svg">
  <defs
     id="defs2">
    <marker
       inkscape:stockid="TriangleOutM"
       orient="auto"
       refY="0"
       refX="0"
       id="TriangleOutM"
       style="overflow:visible"
       inkscape:isstock="true">
      <path
         id="path1160"
         d="M 5.77,0 -2.88,5 V -5 Z"
         style="fill:#579ced;fill-opacity:1;fill-rule:evenodd;stroke:#579ced;stroke-width:1.00000003pt;stroke-opacity:1"
         transform="scale(0.4)"
         inkscape:connector-curvature="0" />
    </marker>
    <marker
       inkscape:stockid="Arrow2Mend"
       orient="auto"
       refY="0"
       refX="0"
       id="Arrow2Mend"
       style="overflow:visible"
       inkscape:isstock="true">
      <path
         id="path1042"
         style="fill:#000000;fill-opacity:1;fill-rule:evenodd;stroke:#000000;stroke-width:0.625;stroke-linejoin:round;stroke-opacity:1"
         d="M 8.7185878,4.0337352 -2.2072895,0.01601326 8.7185884,-4.0017078 c -1.7454984,2.3720609 -1.7354408,5.6174519 -6e-7,8.035443 z"
         transform="scale(-0.6)"
         inkscape:connector-curvature="0" />
    </marker>
    <marker
       inkscape:stockid="Arrow2Lend"
       orient="auto"
       refY="0"
       refX="0"
       id="Arrow2Lend"
       style="overflow:visible"
       inkscape:isstock="true">
      <path
         id="path1036"
         style="fill:#000000;fill-opacity:1;fill-rule:evenodd;stroke:#000000;stroke-width:0.625;stroke-linejoin:round;stroke-opacity:1"
         d="M 8.7185878,4.0337352 -2.2072895,0.01601326 8.7185884,-4.0017078 c -1.7454984,2.3720609 -1.7354408,5.6174519 -6e-7,8.035443 z"
         transform="matrix(-1.1,0,0,-1.1,-1.1,0)"
         inkscape:connector-curvature="0" />
    </marker>
    <marker
       inkscape:stockid="Arrow1Lend"
       orient="auto"
       refY="0"
       refX="0"
       id="Arrow1Lend"
       style="overflow:visible"
       inkscape:isstock="true">
      <path
         id="path1018"
         d="M 0,0 5,-5 -12.5,0 5,5 Z"
         style="fill:#000000;fill-opacity:1;fill-rule:evenodd;stroke:#000000;stroke-width:1.00000003pt;stroke-opacity:1"
         transform="matrix(-0.8,0,0,-0.8,-10,0)"
         inkscape:connector-curvature="0" />
    </marker>
  </defs>
  <sodipodi:namedview
     id="base"
     pagecolor="#ffffff"
     bordercolor="#666666"
     borderopacity="1.0"
     inkscape:pageopacity="0.0"
     inkscape:pageshadow="2"
     inkscape:zoom="1.4"
     inkscape:cx="210.27767"
     inkscape:cy="206.46893"
     inkscape:document-units="mm"
     inkscape:current-layer="layer1"
     showgrid="false"
     inkscape:window-width="2560"
     inkscape:window-height="1377"
     inkscape:window-x="-8"
     inkscape:window-y="-8"
     inkscape:window-maximized="1"
     fit-margin-top="1.5"
     fit-margin-left="1.5"
     fit-margin-right="1.5"
     fit-margin-bottom="1.5"
     inkscape:measure-start="64.4138,312.495"
     inkscape:measure-end="404.414,312.495"
     units="in">
    <inkscape:grid
       type="xygrid"
       id="grid815"
       originx="-17.353012"
       originy="-179.25658" />
  </sodipodi:namedview>
  <metadata
     id="metadata5">
    <rdf:RDF>
      <cc:Work
         rdf:about="">
        <dc:format>image/svg+xml</dc:format>
        <dc:type
           rdf:resource="http://purl.org/dc/dcmitype/StillImage" />
        <dc:title />
      </cc:Work>
    </rdf:RDF>
  </metadata>
  <g
     inkscape:label="Layer 1"
     inkscape:groupmode="layer"
     id="layer1"
     transform="translate(-17.35304,-31.808275)">
    <g
       aria-label="P0"
       style="font-style:normal;font-variant:normal;font-weight:normal;font-stretch:normal;font-size:4.94036865px;line-height:1.25;font-family:'Times New Roman';-inkscape-font-specification:'Times New Roman, ';letter-spacing:0px;word-spacing:0px;fill:#000000;fill-opacity:1;stroke:none;stroke-width:0.20584869"
       id="text819">
      <path
         d="m 20.534572,45.398391 v 0.952854 q 0,0.308773 0.06754,0.383554 0.09167,0.106141 0.277413,0.106141 h 0.125439 v 0.08925 h -1.40154 v -0.08925 h 0.123027 q 0.207456,0 0.296711,-0.135088 0.04825,-0.07478 0.04825,-0.354607 V 44.23808 q 0,-0.308773 -0.06513,-0.383554 -0.09408,-0.106141 -0.279825,-0.106141 h -0.123027 v -0.08926 h 1.198908 q 0.439036,0 0.692327,0.09167 0.25329,0.08926 0.426975,0.303949 0.173685,0.214694 0.173685,0.508993 0,0.40044 -0.265352,0.651318 -0.26294,0.250878 -0.745397,0.250878 -0.118203,0 -0.255703,-0.01689 -0.137501,-0.01689 -0.294299,-0.05066 z m 0,-0.1375 q 0.127851,0.02412 0.226755,0.03618 0.0989,0.01206 0.16886,0.01206 0.250878,0 0.4318,-0.192983 0.183334,-0.195395 0.183334,-0.504168 0,-0.212282 -0.08684,-0.393203 -0.08684,-0.183334 -0.246053,-0.272589 -0.159211,-0.09167 -0.361844,-0.09167 -0.123026,0 -0.316009,0.04583 z"
         style="font-style:normal;font-variant:normal;font-weight:normal;font-stretch:normal;font-family:'Times New Roman';-inkscape-font-specification:'Times New Roman, ';stroke-width:0.20584869"
         id="path896" />
      <path
         d="m 22.449929,45.313961 q 0,-0.559651 0.168861,-0.962503 0.16886,-0.405265 0.448685,-0.603073 0.217107,-0.156799 0.448686,-0.156799 0.376317,0 0.675441,0.383554 0.373905,0.475221 0.373905,1.288163 0,0.5693 -0.164035,0.967328 -0.164036,0.398028 -0.419739,0.578949 -0.25329,0.17851 -0.489695,0.17851 -0.467984,0 -0.779169,-0.552414 -0.26294,-0.465572 -0.26294,-1.121715 z m 0.472809,0.06031 q 0,0.675441 0.166448,1.102416 0.137501,0.359432 0.410089,0.359432 0.130264,0 0.270177,-0.11579 0.139912,-0.118203 0.212281,-0.393203 0.110965,-0.414914 0.110965,-1.169961 0,-0.559651 -0.115789,-0.933556 -0.08684,-0.277413 -0.224343,-0.393203 -0.0989,-0.07961 -0.238817,-0.07961 -0.164036,0 -0.291887,0.14715 -0.173685,0.20022 -0.236404,0.629608 -0.06272,0.429387 -0.06272,0.846713 z"
         style="font-style:normal;font-variant:normal;font-weight:normal;font-stretch:normal;font-family:'Times New Roman';-inkscape-font-specification:'Times New Roman, ';stroke-width:0.20584869"
         id="path898" />
    </g>
    <path
       style="fill:none;stroke:#579ced;stroke-width:0.27446494;stroke-linecap:butt;stroke-linejoin:miter;stroke-miterlimit:4;stroke-dasharray:none;stroke-opacity:1"
       d="M 29.637404,45.489254 H 109.91839"
       id="path855"
       inkscape:connector-curvature="0" />
    <path
       style="fill:none;stroke:#579ced;stroke-width:0.27446494;stroke-linecap:butt;stroke-linejoin:miter;stroke-miterlimit:4;stroke-dasharray:none;stroke-opacity:1"
       d="M 29.637404,59.898665 H 109.91839"
       id="path857"
       inkscape:connector-curvature="0" />
    <path
       style="fill:none;stroke:#579ced;stroke-width:0.27446494;stroke-linecap:butt;stroke-linejoin:miter;stroke-miterlimit:4;stroke-dasharray:none;stroke-opacity:1"
       d="M 29.637404,74.308073 H 109.91839"
       id="path859"
       inkscape:connector-curvature="0" />
    <path
       style="fill:none;stroke:#579ced;stroke-width:0.27446494;stroke-linecap:butt;stroke-linejoin:miter;stroke-miterlimit:4;stroke-dasharray:none;stroke-opacity:1"
       d="M 29.637404,88.717483 H 109.91839"
       id="path861"
       inkscape:connector-curvature="0" />
    <rect
       style="fill:#ffffff;fill-opacity:1;stroke:#000000;stroke-width:0.27446494;stroke-miterlimit:4;stroke-dasharray:none;stroke-dashoffset:0;stroke-opacity:1"
       id="rect863"
       width="28.818823"
       height="12.350922"
       x="35.812866"
       y="39.313793" />
    <rect
       style="fill:#ffffff;fill-opacity:1;stroke:#000000;stroke-width:0.27446494;stroke-miterlimit:4;stroke-dasharray:none;stroke-dashoffset:0;stroke-opacity:1"
       id="rect863-2"
       width="18.526382"
       height="12.350922"
       x="35.812866"
       y="53.723202" />
    <rect
       style="fill:#ffffff;fill-opacity:1;stroke:#000000;stroke-width:0.27446494;stroke-miterlimit:4;stroke-dasharray:none;stroke-dashoffset:0;stroke-opacity:1"
       id="rect863-25"
       width="45.286713"
       height="12.350924"
       x="35.812866"
       y="68.132614" />
    <rect
       style="fill:#ffffff;fill-opacity:1;stroke:#000000;stroke-width:0.27446494;stroke-miterlimit:4;stroke-dasharray:none;stroke-dashoffset:0;stroke-opacity:1"
       id="rect863-8"
       width="34.994282"
       height="12.350916"
       x="35.812866"
       y="82.542023" />
    <path
       style="fill:none;stroke:#ff4646;stroke-width:1.09785974;stroke-linecap:round;stroke-linejoin:miter;stroke-miterlimit:4;stroke-dasharray:none;stroke-dashoffset:0;stroke-opacity:1"
       d="M 85.216553,35.196818 V 101.0684"
       id="path892"
       inkscape:connector-curvature="0" />
    <path
       inkscape:connector-curvature="0"
       style="fill:#ffffff;fill-opacity:1;stroke:#000000;stroke-width:0.27399999;stroke-miterlimit:4;stroke-dasharray:none;stroke-dashoffset:0;stroke-opacity:1"
       d="M 109.91839,51.664717 H 89.33353 v -12.350923 0 h 20.58486"
       id="path969" />
    <path
       inkscape:connector-curvature="0"
       style="fill:#ffffff;fill-opacity:1;stroke:#000000;stroke-width:0.27446494;stroke-miterlimit:4;stroke-dasharray:none;stroke-dashoffset:0;stroke-opacity:1"
       d="M 109.91839,66.074125 H 89.333522 v -12.350922 0 h 20.584868"
       id="path969-0" />
    <path
       inkscape:connector-curvature="0"
       style="fill:#ffffff;fill-opacity:1;stroke:#000000;stroke-width:0.27446494;stroke-miterlimit:4;stroke-dasharray:none;stroke-dashoffset:0;stroke-opacity:1"
       d="M 109.91839,80.483536 H 89.33353 v -12.350924 0 h 20.58486"
       id="path969-2" />
    <path
       inkscape:connector-curvature="0"
       style="fill:#ffffff;fill-opacity:1;stroke:#000000;stroke-width:0.27446494;stroke-miterlimit:4;stroke-dasharray:none;stroke-dashoffset:0;stroke-opacity:1"
       d="M 109.91839,94.892945 H 89.33353 v -12.350924 0 h 20.58486"
       id="path969-9" />
    <path
       style="fill:none;stroke:#579ced;stroke-width:0.41169742;stroke-linecap:butt;stroke-linejoin:miter;stroke-miterlimit:4;stroke-dasharray:none;stroke-opacity:1;marker-end:url(#TriangleOutM)"
       d="M 29.637425,108.06726 H 114.03538"
       id="path1013"
       inkscape:connector-curvature="0" />
    <g
       aria-label="Time"
       style="font-style:normal;font-variant:normal;font-weight:normal;font-stretch:normal;font-size:4.94036865px;line-height:1.25;font-family:'Times New Roman';-inkscape-font-specification:'Times New Roman, ';letter-spacing:0px;word-spacing:0px;fill:#000000;fill-opacity:1;stroke:none;stroke-width:0.20584869"
       id="text1357">
      <path
         d="m 68.645619,111.85819 0.03618,0.76711 h -0.09167 q -0.02653,-0.20263 -0.07237,-0.28947 -0.07478,-0.13992 -0.20022,-0.20505 -0.123027,-0.0675 -0.32566,-0.0675 h -0.460747 v 2.49913 q 0,0.30154 0.06513,0.37632 0.09167,0.10131 0.282238,0.10131 h 0.113377 v 0.0893 H 66.604822 V 115.04 h 0.11579 q 0.207457,0 0.294299,-0.12544 0.05307,-0.0772 0.05307,-0.35219 v -2.49913 h -0.393204 q -0.229167,0 -0.325659,0.0338 -0.125439,0.0458 -0.214693,0.1761 -0.08926,0.13026 -0.106141,0.35219 h -0.09167 l 0.0386,-0.76711 z"
         style="font-style:normal;font-variant:normal;font-weight:normal;font-stretch:normal;font-family:'Times New Roman';-inkscape-font-specification:'Times New Roman, ';stroke-width:0.20584869"
         id="path901" />
      <path
         d="m 69.350007,111.69898 q 0.101316,0 0.171273,0.0724 0.07237,0.07 0.07237,0.17127 0,0.10132 -0.07237,0.17369 -0.06996,0.0724 -0.171273,0.0724 -0.101316,0 -0.173685,-0.0724 -0.07237,-0.0724 -0.07237,-0.17369 0,-0.10131 0.06996,-0.17127 0.07237,-0.0724 0.176097,-0.0724 z m 0.20022,1.15549 v 1.77544 q 0,0.20746 0.02895,0.27742 0.03136,0.0675 0.08925,0.10131 0.06031,0.0338 0.217107,0.0338 v 0.0868 h -1.073469 v -0.0868 q 0.161623,0 0.217106,-0.0314 0.05548,-0.0314 0.08684,-0.10373 0.03377,-0.0724 0.03377,-0.27742 v -0.85153 q 0,-0.35944 -0.02171,-0.46558 -0.01689,-0.0772 -0.05307,-0.10614 -0.03618,-0.0314 -0.0989,-0.0314 -0.06754,0 -0.164035,0.0362 l -0.03377,-0.0868 0.665792,-0.27017 z"
         style="font-style:normal;font-variant:normal;font-weight:normal;font-stretch:normal;font-family:'Times New Roman';-inkscape-font-specification:'Times New Roman, ';stroke-width:0.20584869"
         id="path903" />
      <path
         d="m 70.814267,113.32486 q 0.241229,-0.24122 0.28465,-0.27741 0.108553,-0.0917 0.233992,-0.14232 0.125439,-0.0507 0.248466,-0.0507 0.207457,0 0.357019,0.12061 0.149561,0.12062 0.20022,0.34978 0.248465,-0.28947 0.419738,-0.37872 0.171272,-0.0917 0.352194,-0.0917 0.176097,0 0.311185,0.0917 0.137501,0.0893 0.217107,0.29429 0.05307,0.13992 0.05307,0.43904 v 0.95044 q 0,0.20746 0.03136,0.28465 0.02412,0.0531 0.08925,0.0917 0.06513,0.0362 0.212282,0.0362 v 0.0868 h -1.090355 v -0.0868 h 0.04583 q 0.142325,0 0.22193,-0.0555 0.05548,-0.0386 0.07961,-0.12302 0.0096,-0.041 0.0096,-0.234 v -0.95044 q 0,-0.27018 -0.06513,-0.38114 -0.09408,-0.15439 -0.301536,-0.15439 -0.127851,0 -0.258115,0.0651 -0.127851,0.0627 -0.311185,0.23641 l -0.0048,0.0265 0.0048,0.10373 v 1.05417 q 0,0.22676 0.02412,0.28224 0.02654,0.0555 0.09649,0.0941 0.06996,0.0362 0.238817,0.0362 v 0.0868 h -1.11689 v -0.0868 q 0.183334,0 0.250878,-0.0434 0.06996,-0.0434 0.09649,-0.13026 0.01206,-0.041 0.01206,-0.23882 v -0.95044 q 0,-0.27018 -0.07961,-0.38838 -0.10614,-0.15438 -0.296711,-0.15438 -0.130264,0 -0.258115,0.07 -0.20022,0.10614 -0.308773,0.23882 v 1.18443 q 0,0.21711 0.02895,0.28224 0.03136,0.0651 0.08925,0.0989 0.06031,0.0314 0.241229,0.0314 v 0.0868 h -1.092767 v -0.0868 q 0.151974,0 0.212281,-0.0314 0.06031,-0.0338 0.09167,-0.10373 0.03136,-0.0724 0.03136,-0.27742 v -0.8443 q 0,-0.36425 -0.02171,-0.47039 -0.01689,-0.0796 -0.05307,-0.10856 -0.03618,-0.0314 -0.0989,-0.0314 -0.06754,0 -0.161623,0.0362 l -0.03619,-0.0868 0.665792,-0.27017 h 0.103729 z"
         style="font-style:normal;font-variant:normal;font-weight:normal;font-stretch:normal;font-family:'Times New Roman';-inkscape-font-specification:'Times New Roman, ';stroke-width:0.20584869"
         id="path905" />
      <path
         d="m 74.369982,113.75184 q -0.0024,0.49211 0.238817,0.77193 0.241229,0.27983 0.566888,0.27983 0.217106,0 0.376317,-0.1182 0.161623,-0.12062 0.270176,-0.41009 l 0.07478,0.0482 q -0.05066,0.33049 -0.294299,0.60307 -0.243641,0.27018 -0.610309,0.27018 -0.398028,0 -0.682678,-0.30877 -0.282238,-0.31119 -0.282238,-0.83465 0,-0.56689 0.289475,-0.8829 0.291887,-0.31842 0.730923,-0.31842 0.371493,0 0.610309,0.24605 0.238817,0.24364 0.238817,0.65373 z m 0,-0.13991 h 1.022811 q -0.01206,-0.21228 -0.05066,-0.29913 -0.06031,-0.13508 -0.180922,-0.21228 -0.118202,-0.0772 -0.248466,-0.0772 -0.20022,0 -0.359431,0.1568 -0.156799,0.15438 -0.183334,0.4318 z"
         style="font-style:normal;font-variant:normal;font-weight:normal;font-stretch:normal;font-family:'Times New Roman';-inkscape-font-specification:'Times New Roman, ';stroke-width:0.20584869"
         id="path907" />
    </g>
    <g
       aria-label="P1"
       style="font-style:normal;font-variant:normal;font-weight:normal;font-stretch:normal;font-size:4.94036865px;line-height:1.25;font-family:'Times New Roman';-inkscape-font-specification:'Times New Roman, ';letter-spacing:0px;word-spacing:0px;fill:#000000;fill-opacity:1;stroke:none;stroke-width:0.20584869"
       id="text819-3">
      <path
         d="m 20.53468,59.954841 v 0.952854 q 0,0.308773 0.06754,0.383554 0.09167,0.106141 0.277414,0.106141 h 0.125439 v 0.08926 h -1.40154 v -0.08926 h 0.123026 q 0.207457,0 0.296712,-0.135088 0.04825,-0.07478 0.04825,-0.354607 V 58.79453 q 0,-0.308773 -0.06513,-0.383554 -0.09408,-0.106141 -0.279826,-0.106141 h -0.123026 v -0.08925 h 1.198907 q 0.439037,0 0.692327,0.09167 0.253291,0.08926 0.426976,0.303949 0.173684,0.214694 0.173684,0.508993 0,0.40044 -0.265351,0.651318 -0.26294,0.250878 -0.745398,0.250878 -0.118202,0 -0.255702,-0.01689 -0.137501,-0.01689 -0.2943,-0.05066 z m 0,-0.137501 q 0.127852,0.02412 0.226755,0.03618 0.0989,0.01206 0.168861,0.01206 0.250878,0 0.4318,-0.192983 0.183333,-0.195395 0.183333,-0.504168 0,-0.212282 -0.08684,-0.393204 -0.08684,-0.183334 -0.246053,-0.272588 -0.159212,-0.09167 -0.361844,-0.09167 -0.123027,0 -0.31601,0.04583 z"
         style="font-style:normal;font-variant:normal;font-weight:normal;font-stretch:normal;font-family:'Times New Roman';-inkscape-font-specification:'Times New Roman, ';stroke-width:0.20584869"
         id="path890" />
      <path
         d="m 22.850478,58.536415 0.796056,-0.388379 h 0.07961 v 2.762072 q 0,0.275001 0.02171,0.342545 0.02412,0.06754 0.09649,0.103728 0.07237,0.03618 0.2943,0.04101 v 0.08926 h -1.230268 v -0.08926 q 0.23158,-0.0048 0.299124,-0.0386 0.06754,-0.03618 0.09408,-0.09408 0.02653,-0.06031 0.02653,-0.354606 v -1.765796 q 0,-0.357019 -0.02412,-0.458335 -0.01689,-0.07719 -0.06272,-0.113378 -0.04342,-0.03618 -0.106141,-0.03618 -0.08925,0 -0.248465,0.07478 z"
         style="font-style:normal;font-variant:normal;font-weight:normal;font-stretch:normal;font-family:'Times New Roman';-inkscape-font-specification:'Times New Roman, ';stroke-width:0.20584869"
         id="path893" />
    </g>
    <g
       aria-label="P2"
       style="font-style:normal;font-variant:normal;font-weight:normal;font-stretch:normal;font-size:4.94036865px;line-height:1.25;font-family:'Times New Roman';-inkscape-font-specification:'Times New Roman, ';letter-spacing:0px;word-spacing:0px;fill:#000000;fill-opacity:1;stroke:none;stroke-width:0.20584869"
       id="text819-9">
      <path
         d="m 20.53468,74.21722 v 0.952854 q 0,0.308773 0.06754,0.383554 0.09167,0.106141 0.277414,0.106141 h 0.125439 v 0.08925 h -1.40154 v -0.08925 h 0.123026 q 0.207457,0 0.296712,-0.135088 0.04825,-0.07478 0.04825,-0.354607 v -2.113166 q 0,-0.308773 -0.06513,-0.383554 -0.09408,-0.10614 -0.279826,-0.10614 h -0.123026 v -0.08926 h 1.198907 q 0.439037,0 0.692327,0.09167 0.253291,0.08925 0.426976,0.303948 0.173684,0.214694 0.173684,0.508994 0,0.40044 -0.265351,0.651318 -0.26294,0.250878 -0.745398,0.250878 -0.118202,0 -0.255702,-0.01689 -0.137501,-0.01689 -0.2943,-0.05066 z m 0,-0.137501 q 0.127852,0.02412 0.226755,0.03619 0.0989,0.01206 0.168861,0.01206 0.250878,0 0.4318,-0.192983 0.183333,-0.195396 0.183333,-0.504169 0,-0.212281 -0.08684,-0.393203 -0.08684,-0.183334 -0.246053,-0.272589 -0.159212,-0.09167 -0.361844,-0.09167 -0.123027,0 -0.31601,0.04583 z"
         style="font-style:normal;font-variant:normal;font-weight:normal;font-stretch:normal;font-family:'Times New Roman';-inkscape-font-specification:'Times New Roman, ';stroke-width:0.20584869"
         id="path885" />
      <path
         d="m 24.536668,75.119416 -0.229167,0.629607 h -1.929832 v -0.08925 q 0.851539,-0.776757 1.198908,-1.268864 0.34737,-0.492108 0.34737,-0.899784 0,-0.311186 -0.190571,-0.511406 -0.190571,-0.20022 -0.455923,-0.20022 -0.241229,0 -0.434212,0.142325 -0.190571,0.139913 -0.282238,0.412502 h -0.08925 q 0.06031,-0.446274 0.308773,-0.68509 0.250878,-0.238817 0.624783,-0.238817 0.398027,0 0.663379,0.255703 0.267764,0.255702 0.267764,0.603072 0,0.248466 -0.115789,0.496932 -0.17851,0.39079 -0.57895,0.827415 -0.60066,0.656143 -0.750222,0.791231 h 0.853951 q 0.260527,0 0.364255,-0.0193 0.106141,-0.0193 0.190571,-0.07719 0.08443,-0.06031 0.14715,-0.16886 z"
         style="font-style:normal;font-variant:normal;font-weight:normal;font-stretch:normal;font-family:'Times New Roman';-inkscape-font-specification:'Times New Roman, ';stroke-width:0.20584869"
         id="path887" />
    </g>
    <g
       aria-label="P3"
       style="font-style:normal;font-variant:normal;font-weight:normal;font-stretch:normal;font-size:4.94036865px;line-height:1.25;font-family:'Times New Roman';-inkscape-font-specification:'Times New Roman, ';letter-spacing:0px;word-spacing:0px;fill:#000000;fill-opacity:1;stroke:none;stroke-width:0.20584869"
       id="text819-1">
      <path
         d="m 20.53468,88.920703 v 0.952855 q 0,0.308773 0.06754,0.383554 0.09167,0.10614 0.277414,0.10614 h 0.125439 v 0.08925 h -1.40154 v -0.08925 h 0.123026 q 0.207457,0 0.296712,-0.135088 0.04825,-0.07478 0.04825,-0.354606 v -2.113166 q 0,-0.308773 -0.06513,-0.383554 -0.09408,-0.106141 -0.279826,-0.106141 h -0.123026 v -0.08925 h 1.198907 q 0.439037,0 0.692327,0.09167 0.253291,0.08925 0.426976,0.303948 0.173684,0.214694 0.173684,0.508993 0,0.40044 -0.265351,0.651318 -0.26294,0.250878 -0.745398,0.250878 -0.118202,0 -0.255702,-0.01689 -0.137501,-0.01689 -0.2943,-0.05066 z m 0,-0.1375 q 0.127852,0.02412 0.226755,0.03618 0.0989,0.01206 0.168861,0.01206 0.250878,0 0.4318,-0.192984 0.183333,-0.195395 0.183333,-0.504168 0,-0.212282 -0.08684,-0.393203 -0.08684,-0.183334 -0.246053,-0.272589 -0.159212,-0.09167 -0.361844,-0.09167 -0.123027,0 -0.31601,0.04583 z"
         style="font-style:normal;font-variant:normal;font-weight:normal;font-stretch:normal;font-family:'Times New Roman';-inkscape-font-specification:'Times New Roman, ';stroke-width:0.20584869"
         id="path880" />
      <path
         d="m 22.522407,87.803813 q 0.139913,-0.330483 0.352194,-0.508993 0.214694,-0.180921 0.533116,-0.180921 0.393203,0 0.603072,0.255702 0.159211,0.190571 0.159211,0.407677 0,0.357019 -0.448685,0.738161 0.301536,0.118202 0.455922,0.33772 0.154387,0.219518 0.154387,0.51623 0,0.424563 -0.270177,0.735748 -0.352194,0.405265 -1.020398,0.405265 -0.330484,0 -0.451098,-0.08202 -0.118202,-0.08202 -0.118202,-0.176097 0,-0.06996 0.05548,-0.123027 0.05789,-0.05307 0.137501,-0.05307 0.06031,0 0.123027,0.0193 0.04101,0.01206 0.185746,0.08925 0.144737,0.07478 0.20022,0.08926 0.08925,0.02653 0.190571,0.02653 0.246053,0 0.426975,-0.190571 0.183334,-0.190571 0.183334,-0.451098 0,-0.190571 -0.08443,-0.371493 -0.06272,-0.135088 -0.137501,-0.205044 -0.103728,-0.09649 -0.28465,-0.173685 -0.180921,-0.07961 -0.36908,-0.07961 h -0.07719 v -0.07237 q 0.190571,-0.02412 0.381141,-0.137501 0.192984,-0.113378 0.279826,-0.272589 0.08684,-0.159211 0.08684,-0.349782 0,-0.248465 -0.156798,-0.40044 -0.154387,-0.154386 -0.385967,-0.154386 -0.373905,0 -0.624783,0.40044 z"
         style="font-style:normal;font-variant:normal;font-weight:normal;font-stretch:normal;font-family:'Times New Roman';-inkscape-font-specification:'Times New Roman, ';stroke-width:0.20584869"
         id="path882" />
    </g>
    <g
       aria-label="Barrier()"
       transform="rotate(-90)"
       style="font-style:normal;font-variant:normal;font-weight:normal;font-stretch:normal;font-size:3.2935791px;line-height:1.25;font-family:'Times New Roman';-inkscape-font-specification:'Times New Roman, ';letter-spacing:0px;word-spacing:0px;fill:#000000;fill-opacity:1;stroke:none;stroke-width:0.20584869"
       id="text1397">
      <path
         d="m -49.603463,62.060535 q 0.226756,0.04825 0.339329,0.154387 0.155995,0.147953 0.155995,0.361843 0,0.162428 -0.102925,0.31199 -0.102924,0.147953 -0.283041,0.217106 -0.17851,0.06754 -0.546786,0.06754 h -1.029244 v -0.0595 h 0.08202 q 0.136697,0 0.1962,-0.08684 0.03699,-0.05629 0.03699,-0.239621 v -1.408777 q 0,-0.202632 -0.04664,-0.255702 -0.06272,-0.07076 -0.186551,-0.07076 h -0.08202 v -0.0595 h 0.942402 q 0.263743,0 0.422954,0.0386 0.241229,0.0579 0.368276,0.205848 0.127048,0.146346 0.127048,0.337721 0,0.164036 -0.09971,0.294299 -0.09971,0.128656 -0.2943,0.191375 z m -0.842693,-0.08684 q 0.0595,0.01126 0.135089,0.01769 0.07719,0.0048 0.16886,0.0048 0.234796,0 0.352194,-0.04985 0.119006,-0.05146 0.181726,-0.155994 0.06272,-0.104533 0.06272,-0.228364 0,-0.191375 -0.155994,-0.326463 -0.155995,-0.135088 -0.455119,-0.135088 -0.160819,0 -0.289475,0.03538 z m 0,1.042109 q 0.186551,0.04342 0.368277,0.04342 0.291082,0 0.443861,-0.130264 0.152778,-0.131871 0.152778,-0.324855 0,-0.127047 -0.06915,-0.244445 -0.06915,-0.117398 -0.225147,-0.184942 -0.155995,-0.06754 -0.385967,-0.06754 -0.09971,0 -0.170468,0.0032 -0.07076,0.0032 -0.114182,0.01126 z"
         style="font-style:normal;font-variant:normal;font-weight:normal;font-stretch:normal;font-family:'Times New Roman';-inkscape-font-specification:'Times New Roman, ';stroke-width:0.20584869"
         id="path967" />
      <path
         d="m -47.987229,62.961123 q -0.226755,0.175293 -0.28465,0.202633 -0.08684,0.0402 -0.184942,0.0402 -0.152778,0 -0.252486,-0.104532 -0.0981,-0.104533 -0.0981,-0.275001 0,-0.107749 0.04825,-0.186551 0.06594,-0.109357 0.228363,-0.205848 0.164036,-0.09649 0.543569,-0.234796 v -0.0579 q 0,-0.220323 -0.07076,-0.302341 -0.06915,-0.08202 -0.202632,-0.08202 -0.101317,0 -0.16082,0.05468 -0.06111,0.05468 -0.06111,0.125439 l 0.0032,0.09327 q 0,0.07398 -0.0386,0.114182 -0.03699,0.04021 -0.0981,0.04021 -0.0595,0 -0.0981,-0.04181 -0.03699,-0.04181 -0.03699,-0.114182 0,-0.138304 0.141521,-0.254094 0.141521,-0.11579 0.397223,-0.11579 0.1962,0 0.321639,0.06594 0.09488,0.04985 0.139913,0.155994 0.02895,0.06915 0.02895,0.283042 v 0.500148 q 0,0.210674 0.008,0.258919 0.008,0.04664 0.02573,0.06272 0.0193,0.01608 0.04342,0.01608 0.02573,0 0.04503,-0.01126 0.03377,-0.02091 0.130263,-0.117399 v 0.09006 q -0.180117,0.241229 -0.344153,0.241229 -0.0788,0 -0.125439,-0.05468 -0.04664,-0.05468 -0.04825,-0.186551 z m 0,-0.104532 v -0.56126 q -0.242837,0.09649 -0.313597,0.136697 -0.127048,0.07076 -0.181726,0.147954 -0.05468,0.07719 -0.05468,0.16886 0,0.11579 0.06915,0.192983 0.06915,0.07558 0.159211,0.07558 0.122222,0 0.321638,-0.160819 z"
         style="font-style:normal;font-variant:normal;font-weight:normal;font-stretch:normal;font-family:'Times New Roman';-inkscape-font-specification:'Times New Roman, ';stroke-width:0.20584869"
         id="path970" />
      <path
         d="m -46.930646,61.656879 v 0.331288 q 0.184942,-0.331288 0.379534,-0.331288 0.08845,0 0.146345,0.05468 0.0579,0.05307 0.0579,0.123831 0,0.06272 -0.04181,0.106141 -0.04181,0.04342 -0.09971,0.04342 -0.05629,0 -0.127047,-0.05468 -0.06915,-0.05629 -0.102924,-0.05629 -0.02895,0 -0.06272,0.03216 -0.07237,0.06594 -0.149562,0.217106 v 0.705996 q 0,0.122223 0.03056,0.184943 0.02091,0.04342 0.07398,0.07237 0.05307,0.02895 0.152778,0.02895 v 0.0579 h -0.754243 v -0.0579 q 0.112574,0 0.167253,-0.03538 0.0402,-0.02573 0.05629,-0.08202 0.008,-0.02734 0.008,-0.155995 v -0.570909 q 0,-0.25731 -0.01126,-0.305556 -0.0096,-0.04985 -0.0386,-0.07237 -0.02734,-0.02251 -0.06915,-0.02251 -0.04985,0 -0.112574,0.02412 l -0.01608,-0.0579 0.445469,-0.180117 z"
         style="font-style:normal;font-variant:normal;font-weight:normal;font-stretch:normal;font-family:'Times New Roman';-inkscape-font-specification:'Times New Roman, ';stroke-width:0.20584869"
         id="path972" />
      <path
         d="m -45.830642,61.656879 v 0.331288 q 0.184942,-0.331288 0.379534,-0.331288 0.08845,0 0.146345,0.05468 0.0579,0.05307 0.0579,0.123831 0,0.06272 -0.04181,0.106141 -0.04181,0.04342 -0.09971,0.04342 -0.05629,0 -0.127047,-0.05468 -0.06915,-0.05629 -0.102925,-0.05629 -0.02895,0 -0.06272,0.03216 -0.07237,0.06594 -0.149562,0.217106 v 0.705996 q 0,0.122223 0.03056,0.184943 0.02091,0.04342 0.07398,0.07237 0.05307,0.02895 0.152778,0.02895 v 0.0579 h -0.754243 v -0.0579 q 0.112574,0 0.167252,-0.03538 0.04021,-0.02573 0.05629,-0.08202 0.008,-0.02734 0.008,-0.155995 v -0.570909 q 0,-0.25731 -0.01126,-0.305556 -0.0096,-0.04985 -0.0386,-0.07237 -0.02734,-0.02251 -0.06915,-0.02251 -0.04985,0 -0.112574,0.02412 l -0.01608,-0.0579 0.44547,-0.180117 z"
         style="font-style:normal;font-variant:normal;font-weight:normal;font-stretch:normal;font-family:'Times New Roman';-inkscape-font-specification:'Times New Roman, ';stroke-width:0.20584869"
         id="path974" />
      <path
         d="m -44.786925,60.886554 q 0.06754,0 0.114182,0.04825 0.04825,0.04664 0.04825,0.114182 0,0.06754 -0.04825,0.11579 -0.04664,0.04825 -0.114182,0.04825 -0.06754,0 -0.115789,-0.04825 -0.04825,-0.04825 -0.04825,-0.11579 0,-0.06754 0.04664,-0.114182 0.04825,-0.04825 0.117398,-0.04825 z m 0.13348,0.770325 v 1.18363 q 0,0.138304 0.0193,0.184942 0.02091,0.04503 0.0595,0.06754 0.04021,0.02251 0.144737,0.02251 v 0.0579 h -0.715646 v -0.0579 q 0.107749,0 0.144738,-0.02091 0.03699,-0.02091 0.05789,-0.06915 0.02251,-0.04825 0.02251,-0.184942 v -0.567692 q 0,-0.239621 -0.01447,-0.310382 -0.01126,-0.05146 -0.03538,-0.07076 -0.02412,-0.02091 -0.06594,-0.02091 -0.04503,0 -0.109358,0.02412 l -0.02251,-0.0579 0.443861,-0.180117 z"
         style="font-style:normal;font-variant:normal;font-weight:normal;font-stretch:normal;font-family:'Times New Roman';-inkscape-font-specification:'Times New Roman, ';stroke-width:0.20584869"
         id="path976" />
      <path
         d="m -44.000519,62.255127 q -0.0016,0.328071 0.159211,0.514621 0.16082,0.186551 0.377926,0.186551 0.144737,0 0.250878,-0.0788 0.107749,-0.08041 0.180117,-0.273393 l 0.04985,0.03216 q -0.03377,0.220323 -0.196199,0.402048 -0.162428,0.180118 -0.406873,0.180118 -0.265352,0 -0.455119,-0.205849 -0.188158,-0.207456 -0.188158,-0.556434 0,-0.377926 0.192983,-0.588599 0.194591,-0.212281 0.487283,-0.212281 0.247661,0 0.406872,0.164035 0.159211,0.162428 0.159211,0.435821 z m 0,-0.09328 h 0.681874 q -0.008,-0.141521 -0.03377,-0.199416 -0.04021,-0.09006 -0.120614,-0.141521 -0.0788,-0.05146 -0.165644,-0.05146 -0.13348,0 -0.239621,0.104533 -0.104533,0.102924 -0.122223,0.287866 z"
         style="font-style:normal;font-variant:normal;font-weight:normal;font-stretch:normal;font-family:'Times New Roman';-inkscape-font-specification:'Times New Roman, ';stroke-width:0.20584869"
         id="path978" />
      <path
         d="m -42.356945,61.656879 v 0.331288 q 0.184942,-0.331288 0.379533,-0.331288 0.08845,0 0.146346,0.05468 0.0579,0.05307 0.0579,0.123831 0,0.06272 -0.04181,0.106141 -0.04181,0.04342 -0.09971,0.04342 -0.05629,0 -0.127047,-0.05468 -0.06915,-0.05629 -0.102925,-0.05629 -0.02895,0 -0.06272,0.03216 -0.07237,0.06594 -0.149562,0.217106 v 0.705996 q 0,0.122223 0.03055,0.184943 0.02091,0.04342 0.07398,0.07237 0.05307,0.02895 0.152779,0.02895 v 0.0579 h -0.754243 v -0.0579 q 0.112574,0 0.167252,-0.03538 0.04021,-0.02573 0.05629,-0.08202 0.008,-0.02734 0.008,-0.155995 v -0.570909 q 0,-0.25731 -0.01126,-0.305556 -0.0097,-0.04985 -0.0386,-0.07237 -0.02734,-0.02251 -0.06915,-0.02251 -0.04985,0 -0.112574,0.02412 l -0.01608,-0.0579 0.44547,-0.180117 z"
         style="font-style:normal;font-variant:normal;font-weight:normal;font-stretch:normal;font-family:'Times New Roman';-inkscape-font-specification:'Times New Roman, ';stroke-width:0.20584869"
         id="path980" />
      <path
         d="m -40.76805,63.81829 v 0.0595 q -0.242838,-0.122222 -0.405265,-0.286258 -0.23158,-0.233188 -0.357019,-0.550002 -0.125439,-0.316814 -0.125439,-0.657751 0,-0.49854 0.246054,-0.908629 0.246053,-0.411697 0.641669,-0.588599 v 0.06754 q -0.197808,0.109358 -0.324855,0.299124 -0.127048,0.189767 -0.189767,0.48085 -0.06272,0.291083 -0.06272,0.607897 0,0.344153 0.05307,0.625587 0.04181,0.221931 0.101316,0.355411 0.0595,0.135088 0.159211,0.258919 0.101316,0.123831 0.263744,0.236404 z"
         style="font-style:normal;font-variant:normal;font-weight:normal;font-stretch:normal;font-family:'Times New Roman';-inkscape-font-specification:'Times New Roman, ';stroke-width:0.20584869"
         id="path982" />
      <path
         d="m -40.61688,60.954098 v -0.06754 q 0.244445,0.120615 0.406873,0.284651 0.229971,0.234796 0.35541,0.55161 0.125439,0.315205 0.125439,0.657751 0,0.498539 -0.246053,0.908629 -0.244445,0.411697 -0.641669,0.588598 v -0.0595 q 0.197808,-0.110965 0.324855,-0.300732 0.128655,-0.188159 0.189767,-0.479242 0.06272,-0.292691 0.06272,-0.609505 0,-0.342545 -0.05307,-0.625587 -0.04021,-0.22193 -0.101316,-0.35541 -0.0595,-0.13348 -0.159211,-0.257311 -0.09971,-0.123831 -0.263744,-0.236405 z"
         style="font-style:normal;font-variant:normal;font-weight:normal;font-stretch:normal;font-family:'Times New Roman';-inkscape-font-specification:'Times New Roman, ';stroke-width:0.20584869"
         id="path984" />
    </g>
    <g
       aria-label="Barrier()"
       transform="rotate(-90)"
       style="font-style:normal;font-variant:normal;font-weight:normal;font-stretch:normal;font-size:3.2935791px;line-height:1.25;font-family:'Times New Roman';-inkscape-font-specification:'Times New Roman, ';letter-spacing:0px;word-spacing:0px;fill:#000000;fill-opacity:1;stroke:none;stroke-width:0.20584869"
       id="text1397-6">
      <path
         d="m -64.012867,51.768097 q 0.226755,0.04825 0.339328,0.154386 0.155995,0.147954 0.155995,0.361844 0,0.162427 -0.102924,0.311989 -0.102925,0.147954 -0.283042,0.217106 -0.17851,0.06754 -0.546786,0.06754 h -1.029243 v -0.0595 h 0.08202 q 0.136696,0 0.196199,-0.08684 0.03699,-0.05629 0.03699,-0.239621 v -1.408777 q 0,-0.202632 -0.04664,-0.255703 -0.06272,-0.07076 -0.18655,-0.07076 h -0.08202 v -0.0595 h 0.942401 q 0.263743,0 0.422955,0.0386 0.241228,0.0579 0.368276,0.205849 0.127047,0.146345 0.127047,0.33772 0,0.164036 -0.09971,0.2943 -0.09971,0.128655 -0.294299,0.191375 z m -0.842693,-0.08684 q 0.0595,0.01126 0.135088,0.01769 0.07719,0.0048 0.16886,0.0048 0.234796,0 0.352194,-0.04985 0.119007,-0.05146 0.181726,-0.155995 0.06272,-0.104532 0.06272,-0.228363 0,-0.191375 -0.155995,-0.326463 -0.155995,-0.135088 -0.455119,-0.135088 -0.160819,0 -0.289474,0.03538 z m 0,1.042109 q 0.18655,0.04342 0.368276,0.04342 0.291083,0 0.443861,-0.130263 0.152778,-0.131872 0.152778,-0.324855 0,-0.127047 -0.06915,-0.244445 -0.06915,-0.117399 -0.225147,-0.184943 -0.155995,-0.06754 -0.385966,-0.06754 -0.09971,0 -0.170469,0.0032 -0.07076,0.0032 -0.114181,0.01126 z"
         style="font-style:normal;font-variant:normal;font-weight:normal;font-stretch:normal;font-family:'Times New Roman';-inkscape-font-specification:'Times New Roman, ';stroke-width:0.20584869"
         id="path948" />
      <path
         d="m -62.396633,52.668685 q -0.226756,0.175293 -0.284651,0.202632 -0.08684,0.04021 -0.184942,0.04021 -0.152778,0 -0.252486,-0.104533 -0.0981,-0.104532 -0.0981,-0.275001 0,-0.107749 0.04825,-0.18655 0.06594,-0.109357 0.228363,-0.205849 0.164036,-0.09649 0.54357,-0.234796 v -0.05789 q 0,-0.220322 -0.07076,-0.30234 -0.06915,-0.08202 -0.202632,-0.08202 -0.101316,0 -0.16082,0.05468 -0.06111,0.05468 -0.06111,0.125439 l 0.0032,0.09328 q 0,0.07398 -0.0386,0.114182 -0.03699,0.0402 -0.0981,0.0402 -0.0595,0 -0.0981,-0.04181 -0.03699,-0.04181 -0.03699,-0.114181 0,-0.138305 0.141521,-0.254095 0.141521,-0.11579 0.397224,-0.11579 0.196199,0 0.321638,0.06594 0.09488,0.04985 0.139913,0.155995 0.02895,0.06915 0.02895,0.283042 v 0.500148 q 0,0.210673 0.008,0.258919 0.008,0.04664 0.02573,0.06272 0.0193,0.01608 0.04342,0.01608 0.02573,0 0.04503,-0.01126 0.03377,-0.02091 0.130264,-0.117398 v 0.09006 q -0.180118,0.241229 -0.344154,0.241229 -0.0788,0 -0.125439,-0.05468 -0.04664,-0.05468 -0.04825,-0.18655 z m 0,-0.104533 v -0.561259 q -0.242838,0.09649 -0.313598,0.136696 -0.127047,0.07076 -0.181726,0.147954 -0.05468,0.07719 -0.05468,0.16886 0,0.11579 0.06915,0.192983 0.06915,0.07558 0.159211,0.07558 0.122223,0 0.321639,-0.160819 z"
         style="font-style:normal;font-variant:normal;font-weight:normal;font-stretch:normal;font-family:'Times New Roman';-inkscape-font-specification:'Times New Roman, ';stroke-width:0.20584869"
         id="path950" />
      <path
         d="m -61.340051,51.36444 v 0.331288 q 0.184942,-0.331288 0.379534,-0.331288 0.08845,0 0.146345,0.05468 0.0579,0.05307 0.0579,0.123831 0,0.06272 -0.04181,0.10614 -0.04181,0.04342 -0.09971,0.04342 -0.05629,0 -0.127047,-0.05468 -0.06915,-0.05629 -0.102924,-0.05629 -0.02895,0 -0.06272,0.03216 -0.07237,0.06594 -0.149562,0.217106 v 0.705997 q 0,0.122223 0.03056,0.184942 0.02091,0.04342 0.07398,0.07237 0.05307,0.02895 0.152778,0.02895 v 0.0579 h -0.754242 v -0.0579 q 0.112573,0 0.167252,-0.03538 0.04021,-0.02573 0.05629,-0.08202 0.008,-0.02734 0.008,-0.155995 V 51.97877 q 0,-0.257311 -0.01126,-0.305557 -0.0096,-0.04985 -0.0386,-0.07237 -0.02734,-0.02251 -0.06915,-0.02251 -0.04985,0 -0.112573,0.02412 l -0.01608,-0.05789 0.445469,-0.180118 z"
         style="font-style:normal;font-variant:normal;font-weight:normal;font-stretch:normal;font-family:'Times New Roman';-inkscape-font-specification:'Times New Roman, ';stroke-width:0.20584869"
         id="path952" />
      <path
         d="m -60.240047,51.36444 v 0.331288 q 0.184942,-0.331288 0.379534,-0.331288 0.08845,0 0.146345,0.05468 0.0579,0.05307 0.0579,0.123831 0,0.06272 -0.04181,0.10614 -0.04181,0.04342 -0.09971,0.04342 -0.05629,0 -0.127047,-0.05468 -0.06915,-0.05629 -0.102924,-0.05629 -0.02895,0 -0.06272,0.03216 -0.07237,0.06594 -0.149562,0.217106 v 0.705997 q 0,0.122223 0.03056,0.184942 0.02091,0.04342 0.07398,0.07237 0.05307,0.02895 0.152778,0.02895 v 0.0579 h -0.754242 v -0.0579 q 0.112573,0 0.167252,-0.03538 0.04021,-0.02573 0.05629,-0.08202 0.008,-0.02734 0.008,-0.155995 V 51.97877 q 0,-0.257311 -0.01126,-0.305557 -0.0096,-0.04985 -0.0386,-0.07237 -0.02734,-0.02251 -0.06915,-0.02251 -0.04985,0 -0.112573,0.02412 l -0.01608,-0.05789 0.445469,-0.180118 z"
         style="font-style:normal;font-variant:normal;font-weight:normal;font-stretch:normal;font-family:'Times New Roman';-inkscape-font-specification:'Times New Roman, ';stroke-width:0.20584869"
         id="path954" />
      <path
         d="m -59.196329,50.594116 q 0.06754,0 0.114181,0.04825 0.04825,0.04664 0.04825,0.114181 0,0.06754 -0.04825,0.11579 -0.04664,0.04825 -0.114181,0.04825 -0.06754,0 -0.11579,-0.04825 -0.04825,-0.04825 -0.04825,-0.11579 0,-0.06754 0.04664,-0.114181 0.04825,-0.04825 0.117398,-0.04825 z m 0.13348,0.770324 v 1.18363 q 0,0.138305 0.0193,0.184942 0.02091,0.04503 0.0595,0.06754 0.04021,0.02251 0.144738,0.02251 v 0.0579 h -0.715646 v -0.0579 q 0.107749,0 0.144737,-0.02091 0.03699,-0.02091 0.05789,-0.06915 0.02252,-0.04825 0.02252,-0.184942 v -0.567692 q 0,-0.239621 -0.01447,-0.310381 -0.01126,-0.05146 -0.03538,-0.07076 -0.02412,-0.02091 -0.06594,-0.02091 -0.04503,0 -0.109357,0.02412 l -0.02252,-0.05789 0.443861,-0.180118 z"
         style="font-style:normal;font-variant:normal;font-weight:normal;font-stretch:normal;font-family:'Times New Roman';-inkscape-font-specification:'Times New Roman, ';stroke-width:0.20584869"
         id="path956" />
      <path
         d="m -58.409923,51.962688 q -0.0016,0.328071 0.159211,0.514622 0.160819,0.18655 0.377925,0.18655 0.144737,0 0.250878,-0.0788 0.107749,-0.08041 0.180118,-0.273393 l 0.04985,0.03216 q -0.03377,0.220322 -0.1962,0.402048 -0.162427,0.180118 -0.406873,0.180118 -0.265351,0 -0.455118,-0.205849 -0.188159,-0.207457 -0.188159,-0.556435 0,-0.377925 0.192983,-0.588598 0.194592,-0.212282 0.487283,-0.212282 0.247661,0 0.406873,0.164036 0.159211,0.162427 0.159211,0.43582 z m 0,-0.09327 h 0.681873 q -0.008,-0.141521 -0.03377,-0.199416 -0.04021,-0.09006 -0.120614,-0.141521 -0.0788,-0.05146 -0.165644,-0.05146 -0.13348,0 -0.239621,0.104532 -0.104532,0.102925 -0.122222,0.287867 z"
         style="font-style:normal;font-variant:normal;font-weight:normal;font-stretch:normal;font-family:'Times New Roman';-inkscape-font-specification:'Times New Roman, ';stroke-width:0.20584869"
         id="path958" />
      <path
         d="m -56.76635,51.36444 v 0.331288 q 0.184942,-0.331288 0.379533,-0.331288 0.08845,0 0.146346,0.05468 0.0579,0.05307 0.0579,0.123831 0,0.06272 -0.04181,0.10614 -0.04181,0.04342 -0.09971,0.04342 -0.05629,0 -0.127047,-0.05468 -0.06915,-0.05629 -0.102925,-0.05629 -0.02895,0 -0.06272,0.03216 -0.07237,0.06594 -0.149562,0.217106 v 0.705997 q 0,0.122223 0.03056,0.184942 0.02091,0.04342 0.07398,0.07237 0.05307,0.02895 0.152778,0.02895 v 0.0579 h -0.754243 v -0.0579 q 0.112574,0 0.167252,-0.03538 0.04021,-0.02573 0.05629,-0.08202 0.008,-0.02734 0.008,-0.155995 V 51.97877 q 0,-0.257311 -0.01126,-0.305557 -0.0096,-0.04985 -0.0386,-0.07237 -0.02734,-0.02251 -0.06915,-0.02251 -0.04985,0 -0.112574,0.02412 l -0.01608,-0.05789 0.44547,-0.180118 z"
         style="font-style:normal;font-variant:normal;font-weight:normal;font-stretch:normal;font-family:'Times New Roman';-inkscape-font-specification:'Times New Roman, ';stroke-width:0.20584869"
         id="path960" />
      <path
         d="m -55.177455,53.525852 v 0.0595 q -0.242837,-0.122223 -0.405265,-0.286259 -0.23158,-0.233188 -0.357019,-0.550002 -0.125439,-0.316814 -0.125439,-0.657751 0,-0.498539 0.246054,-0.908629 0.246053,-0.411697 0.641669,-0.588598 v 0.06754 q -0.197808,0.109357 -0.324855,0.299124 -0.127047,0.189767 -0.189767,0.48085 -0.06272,0.291082 -0.06272,0.607896 0,0.344154 0.05307,0.625587 0.04181,0.221931 0.101316,0.355411 0.0595,0.135088 0.159211,0.258919 0.101316,0.123831 0.263744,0.236405 z"
         style="font-style:normal;font-variant:normal;font-weight:normal;font-stretch:normal;font-family:'Times New Roman';-inkscape-font-specification:'Times New Roman, ';stroke-width:0.20584869"
         id="path962" />
      <path
         d="m -55.026285,50.66166 v -0.06754 q 0.244446,0.120614 0.406873,0.28465 0.229972,0.234796 0.355411,0.55161 0.125439,0.315206 0.125439,0.657751 0,0.49854 -0.246054,0.908629 -0.244445,0.411697 -0.641669,0.588599 v -0.0595 q 0.197808,-0.110966 0.324855,-0.300733 0.128656,-0.188158 0.189767,-0.479241 0.06272,-0.292691 0.06272,-0.609505 0,-0.342545 -0.05307,-0.625587 -0.04021,-0.221931 -0.101316,-0.355411 -0.0595,-0.13348 -0.159211,-0.257311 -0.09971,-0.123831 -0.263744,-0.236404 z"
         style="font-style:normal;font-variant:normal;font-weight:normal;font-stretch:normal;font-family:'Times New Roman';-inkscape-font-specification:'Times New Roman, ';stroke-width:0.20584869"
         id="path964" />
    </g>
    <g
       aria-label="Barrier()"
       transform="rotate(-90)"
       style="font-style:normal;font-variant:normal;font-weight:normal;font-stretch:normal;font-size:3.2935791px;line-height:1.25;font-family:'Times New Roman';-inkscape-font-specification:'Times New Roman, ';letter-spacing:0px;word-spacing:0px;fill:#000000;fill-opacity:1;stroke:none;stroke-width:0.20584869"
       id="text1397-2">
      <path
         d="m -78.422284,78.234352 q 0.226756,0.04825 0.339329,0.154386 0.155995,0.147954 0.155995,0.361844 0,0.162427 -0.102924,0.311989 -0.102925,0.147954 -0.283042,0.217106 -0.17851,0.06754 -0.546786,0.06754 h -1.029243 v -0.0595 h 0.08202 q 0.136697,0 0.1962,-0.08684 0.03699,-0.05629 0.03699,-0.239621 v -1.408777 q 0,-0.202632 -0.04664,-0.255703 -0.06272,-0.07076 -0.186551,-0.07076 h -0.08202 v -0.0595 h 0.942401 q 0.263743,0 0.422954,0.0386 0.241229,0.0579 0.368276,0.205849 0.127048,0.146346 0.127048,0.337721 0,0.164035 -0.09971,0.294299 -0.09971,0.128655 -0.2943,0.191375 z m -0.842693,-0.08684 q 0.0595,0.01126 0.135089,0.01769 0.07719,0.0048 0.16886,0.0048 0.234796,0 0.352194,-0.04985 0.119006,-0.05146 0.181726,-0.155995 0.06272,-0.104532 0.06272,-0.228363 0,-0.191375 -0.155994,-0.326463 -0.155995,-0.135088 -0.455119,-0.135088 -0.160819,0 -0.289475,0.03538 z m 0,1.042109 q 0.186551,0.04342 0.368277,0.04342 0.291082,0 0.443861,-0.130264 0.152778,-0.131872 0.152778,-0.324855 0,-0.127047 -0.06915,-0.244445 -0.06915,-0.117398 -0.225147,-0.184942 -0.155995,-0.06754 -0.385966,-0.06754 -0.09971,0 -0.170469,0.0032 -0.07076,0.0032 -0.114182,0.01126 z"
         style="font-style:normal;font-variant:normal;font-weight:normal;font-stretch:normal;font-family:'Times New Roman';-inkscape-font-specification:'Times New Roman, ';stroke-width:0.20584869"
         id="path929" />
      <path
         d="m -76.80605,79.13494 q -0.226755,0.175293 -0.28465,0.202632 -0.08684,0.04021 -0.184942,0.04021 -0.152778,0 -0.252486,-0.104532 -0.0981,-0.104533 -0.0981,-0.275001 0,-0.107749 0.04825,-0.186551 0.06594,-0.109357 0.228363,-0.205849 0.164036,-0.09649 0.543569,-0.234796 v -0.0579 q 0,-0.220322 -0.07076,-0.30234 -0.06915,-0.08202 -0.202632,-0.08202 -0.101317,0 -0.16082,0.05468 -0.06111,0.05468 -0.06111,0.125439 l 0.0032,0.09328 q 0,0.07398 -0.0386,0.114182 -0.03699,0.04021 -0.0981,0.04021 -0.0595,0 -0.0981,-0.04181 -0.03699,-0.04181 -0.03699,-0.114182 0,-0.138305 0.141521,-0.254095 0.141521,-0.11579 0.397223,-0.11579 0.1962,0 0.321639,0.06594 0.09488,0.04985 0.139913,0.155995 0.02895,0.06915 0.02895,0.283042 v 0.500148 q 0,0.210673 0.008,0.258919 0.008,0.04664 0.02573,0.06272 0.0193,0.01608 0.04342,0.01608 0.02573,0 0.04503,-0.01126 0.03377,-0.02091 0.130263,-0.117398 v 0.09006 q -0.180117,0.241229 -0.344153,0.241229 -0.0788,0 -0.125439,-0.05468 -0.04664,-0.05468 -0.04825,-0.18655 z m 0,-0.104533 v -0.561259 q -0.242837,0.09649 -0.313597,0.136696 -0.127048,0.07076 -0.181726,0.147954 -0.05468,0.07719 -0.05468,0.16886 0,0.11579 0.06915,0.192984 0.06915,0.07559 0.159211,0.07559 0.122222,0 0.321638,-0.16082 z"
         style="font-style:normal;font-variant:normal;font-weight:normal;font-stretch:normal;font-family:'Times New Roman';-inkscape-font-specification:'Times New Roman, ';stroke-width:0.20584869"
         id="path931" />
      <path
         d="m -75.749467,77.830695 v 0.331288 q 0.184942,-0.331288 0.379534,-0.331288 0.08845,0 0.146345,0.05468 0.0579,0.05307 0.0579,0.123831 0,0.06272 -0.04181,0.106141 -0.04181,0.04342 -0.09971,0.04342 -0.05629,0 -0.127047,-0.05468 -0.06915,-0.05629 -0.102924,-0.05629 -0.02895,0 -0.06272,0.03216 -0.07237,0.06594 -0.149562,0.217106 v 0.705997 q 0,0.122223 0.03056,0.184942 0.02091,0.04342 0.07398,0.07237 0.05307,0.02895 0.152778,0.02895 v 0.0579 h -0.754243 v -0.0579 q 0.112574,0 0.167253,-0.03538 0.0402,-0.02573 0.05629,-0.08202 0.008,-0.02734 0.008,-0.155994 v -0.570909 q 0,-0.257311 -0.01126,-0.305557 -0.0096,-0.04985 -0.0386,-0.07237 -0.02734,-0.02251 -0.06915,-0.02251 -0.04985,0 -0.112574,0.02412 l -0.01608,-0.0579 0.445469,-0.180118 z"
         style="font-style:normal;font-variant:normal;font-weight:normal;font-stretch:normal;font-family:'Times New Roman';-inkscape-font-specification:'Times New Roman, ';stroke-width:0.20584869"
         id="path933" />
      <path
         d="m -74.649463,77.830695 v 0.331288 q 0.184942,-0.331288 0.379534,-0.331288 0.08845,0 0.146345,0.05468 0.05789,0.05307 0.05789,0.123831 0,0.06272 -0.04181,0.106141 -0.04181,0.04342 -0.09971,0.04342 -0.05629,0 -0.127047,-0.05468 -0.06915,-0.05629 -0.102924,-0.05629 -0.02895,0 -0.06272,0.03216 -0.07237,0.06594 -0.149562,0.217106 v 0.705997 q 0,0.122223 0.03056,0.184942 0.02091,0.04342 0.07398,0.07237 0.05307,0.02895 0.152778,0.02895 v 0.0579 h -0.754243 v -0.0579 q 0.112574,0 0.167253,-0.03538 0.0402,-0.02573 0.05629,-0.08202 0.008,-0.02734 0.008,-0.155994 v -0.570909 q 0,-0.257311 -0.01126,-0.305557 -0.0096,-0.04985 -0.0386,-0.07237 -0.02734,-0.02251 -0.06915,-0.02251 -0.04985,0 -0.112574,0.02412 l -0.01608,-0.0579 0.445469,-0.180118 z"
         style="font-style:normal;font-variant:normal;font-weight:normal;font-stretch:normal;font-family:'Times New Roman';-inkscape-font-specification:'Times New Roman, ';stroke-width:0.20584869"
         id="path935" />
      <path
         d="m -73.605745,77.060371 q 0.06754,0 0.114181,0.04825 0.04825,0.04664 0.04825,0.114182 0,0.06754 -0.04825,0.115789 -0.04664,0.04825 -0.114181,0.04825 -0.06754,0 -0.11579,-0.04825 -0.04825,-0.04825 -0.04825,-0.115789 0,-0.06754 0.04664,-0.114182 0.04825,-0.04825 0.117399,-0.04825 z m 0.13348,0.770324 v 1.18363 q 0,0.138305 0.0193,0.184943 0.02091,0.04503 0.0595,0.06754 0.04021,0.02251 0.144737,0.02251 v 0.0579 h -0.715646 v -0.0579 q 0.107749,0 0.144738,-0.02091 0.03699,-0.02091 0.0579,-0.06915 0.02251,-0.04825 0.02251,-0.184943 v -0.567692 q 0,-0.23962 -0.01447,-0.310381 -0.01126,-0.05146 -0.03538,-0.07076 -0.02412,-0.02091 -0.06594,-0.02091 -0.04503,0 -0.109358,0.02412 l -0.02251,-0.0579 0.443861,-0.180118 z"
         style="font-style:normal;font-variant:normal;font-weight:normal;font-stretch:normal;font-family:'Times New Roman';-inkscape-font-specification:'Times New Roman, ';stroke-width:0.20584869"
         id="path937" />
      <path
         d="m -72.81934,78.428943 q -0.0016,0.328072 0.159211,0.514622 0.16082,0.18655 0.377926,0.18655 0.144737,0 0.250878,-0.0788 0.107749,-0.08041 0.180118,-0.273393 l 0.04985,0.03216 q -0.03377,0.220322 -0.196199,0.402048 -0.162428,0.180118 -0.406873,0.180118 -0.265352,0 -0.455118,-0.205849 -0.188159,-0.207457 -0.188159,-0.556435 0,-0.377925 0.192983,-0.588598 0.194591,-0.212282 0.487283,-0.212282 0.247661,0 0.406872,0.164036 0.159211,0.162427 0.159211,0.43582 z m 0,-0.09328 h 0.681874 q -0.008,-0.141521 -0.03377,-0.199416 -0.04021,-0.09006 -0.120614,-0.141521 -0.0788,-0.05146 -0.165644,-0.05146 -0.13348,0 -0.239621,0.104532 -0.104533,0.102925 -0.122223,0.287867 z"
         style="font-style:normal;font-variant:normal;font-weight:normal;font-stretch:normal;font-family:'Times New Roman';-inkscape-font-specification:'Times New Roman, ';stroke-width:0.20584869"
         id="path939" />
      <path
         d="m -71.175766,77.830695 v 0.331288 q 0.184942,-0.331288 0.379533,-0.331288 0.08845,0 0.146346,0.05468 0.0579,0.05307 0.0579,0.123831 0,0.06272 -0.04181,0.106141 -0.04181,0.04342 -0.09971,0.04342 -0.05629,0 -0.127047,-0.05468 -0.06915,-0.05629 -0.102925,-0.05629 -0.02895,0 -0.06272,0.03216 -0.07237,0.06594 -0.149562,0.217106 v 0.705997 q 0,0.122223 0.03055,0.184942 0.02091,0.04342 0.07398,0.07237 0.05307,0.02895 0.152779,0.02895 v 0.0579 h -0.754243 v -0.0579 q 0.112574,0 0.167252,-0.03538 0.04021,-0.02573 0.05629,-0.08202 0.008,-0.02734 0.008,-0.155994 v -0.570909 q 0,-0.257311 -0.01126,-0.305557 -0.0096,-0.04985 -0.0386,-0.07237 -0.02734,-0.02251 -0.06915,-0.02251 -0.04985,0 -0.112574,0.02412 l -0.01608,-0.0579 0.44547,-0.180118 z"
         style="font-style:normal;font-variant:normal;font-weight:normal;font-stretch:normal;font-family:'Times New Roman';-inkscape-font-specification:'Times New Roman, ';stroke-width:0.20584869"
         id="path941" />
      <path
         d="m -69.586871,79.992107 v 0.0595 q -0.242838,-0.122223 -0.405265,-0.286258 -0.23158,-0.233188 -0.357019,-0.550002 -0.125439,-0.316814 -0.125439,-0.657751 0,-0.49854 0.246054,-0.908629 0.246053,-0.411698 0.641669,-0.588599 v 0.06754 q -0.197808,0.109357 -0.324855,0.299124 -0.127048,0.189767 -0.189767,0.48085 -0.06272,0.291083 -0.06272,0.607897 0,0.344153 0.05307,0.625587 0.04181,0.22193 0.101316,0.35541 0.0595,0.135089 0.159211,0.258919 0.101316,0.123831 0.263744,0.236405 z"
         style="font-style:normal;font-variant:normal;font-weight:normal;font-stretch:normal;font-family:'Times New Roman';-inkscape-font-specification:'Times New Roman, ';stroke-width:0.20584869"
         id="path943" />
      <path
         d="m -69.435701,77.127915 v -0.06754 q 0.244445,0.120615 0.406873,0.28465 0.229971,0.234796 0.35541,0.55161 0.125439,0.315206 0.125439,0.657751 0,0.49854 -0.246053,0.908629 -0.244445,0.411698 -0.641669,0.588599 v -0.0595 q 0.197808,-0.110966 0.324855,-0.300732 0.128655,-0.188159 0.189767,-0.479242 0.06272,-0.292691 0.06272,-0.609505 0,-0.342545 -0.05307,-0.625587 -0.04021,-0.221931 -0.101316,-0.355411 -0.0595,-0.13348 -0.159211,-0.25731 -0.09971,-0.123831 -0.263744,-0.236405 z"
         style="font-style:normal;font-variant:normal;font-weight:normal;font-stretch:normal;font-family:'Times New Roman';-inkscape-font-specification:'Times New Roman, ';stroke-width:0.20584869"
         id="path945" />
    </g>
    <g
       aria-label="Barrier()"
       transform="rotate(-90)"
       style="font-style:normal;font-variant:normal;font-weight:normal;font-stretch:normal;font-size:3.2935791px;line-height:1.25;font-family:'Times New Roman';-inkscape-font-specification:'Times New Roman, ';letter-spacing:0px;word-spacing:0px;fill:#000000;fill-opacity:1;stroke:none;stroke-width:0.20584869"
       id="text1397-3">
      <path
         d="m -92.831692,68.235992 q 0.226755,0.04825 0.339329,0.154387 0.155994,0.147953 0.155994,0.361843 0,0.162428 -0.102924,0.31199 -0.102924,0.147953 -0.283042,0.217106 -0.178509,0.06754 -0.546786,0.06754 h -1.029243 v -0.0595 h 0.08202 q 0.136696,0 0.196199,-0.08684 0.03699,-0.05629 0.03699,-0.239621 v -1.408777 q 0,-0.202632 -0.04664,-0.255702 -0.06272,-0.07076 -0.18655,-0.07076 h -0.08202 v -0.0595 h 0.942401 q 0.263744,0 0.422955,0.0386 0.241229,0.0579 0.368276,0.205848 0.127047,0.146346 0.127047,0.337721 0,0.164036 -0.09971,0.294299 -0.09971,0.128656 -0.294299,0.191375 z m -0.842693,-0.08684 q 0.0595,0.01126 0.135088,0.01769 0.07719,0.0048 0.16886,0.0048 0.234796,0 0.352195,-0.04985 0.119006,-0.05146 0.181725,-0.155994 0.06272,-0.104533 0.06272,-0.228364 0,-0.191375 -0.155995,-0.326463 -0.155995,-0.135088 -0.455118,-0.135088 -0.16082,0 -0.289475,0.03538 z m 0,1.042109 q 0.18655,0.04342 0.368276,0.04342 0.291083,0 0.443861,-0.130264 0.152779,-0.131871 0.152779,-0.324855 0,-0.127047 -0.06915,-0.244445 -0.06915,-0.117398 -0.225147,-0.184942 -0.155994,-0.06754 -0.385966,-0.06754 -0.09971,0 -0.170468,0.0032 -0.07076,0.0032 -0.114182,0.01126 z"
         style="font-style:normal;font-variant:normal;font-weight:normal;font-stretch:normal;font-family:'Times New Roman';-inkscape-font-specification:'Times New Roman, ';stroke-width:0.20584869"
         id="path910" />
      <path
         d="m -91.215458,69.13658 q -0.226755,0.175293 -0.28465,0.202633 -0.08684,0.0402 -0.184943,0.0402 -0.152778,0 -0.252486,-0.104532 -0.0981,-0.104533 -0.0981,-0.275001 0,-0.107749 0.04825,-0.186551 0.06594,-0.109357 0.228364,-0.205848 0.164035,-0.09649 0.543569,-0.234796 v -0.05789 q 0,-0.220323 -0.07076,-0.302341 -0.06915,-0.08202 -0.202632,-0.08202 -0.101316,0 -0.160819,0.05468 -0.06111,0.05468 -0.06111,0.125439 l 0.0032,0.09328 q 0,0.07398 -0.0386,0.114182 -0.03699,0.04021 -0.0981,0.04021 -0.0595,0 -0.0981,-0.04181 -0.03699,-0.04181 -0.03699,-0.114182 0,-0.138304 0.141521,-0.254094 0.141521,-0.11579 0.397224,-0.11579 0.196199,0 0.321638,0.06594 0.09488,0.04985 0.139913,0.155994 0.02895,0.06915 0.02895,0.283042 v 0.500148 q 0,0.210674 0.008,0.258919 0.008,0.04664 0.02573,0.06272 0.0193,0.01608 0.04342,0.01608 0.02573,0 0.04503,-0.01126 0.03377,-0.02091 0.130264,-0.117399 v 0.09006 q -0.180118,0.241229 -0.344153,0.241229 -0.0788,0 -0.125439,-0.05468 -0.04664,-0.05468 -0.04825,-0.186551 z m 0,-0.104532 v -0.56126 q -0.242837,0.09649 -0.313598,0.136697 -0.127047,0.07076 -0.181726,0.147954 -0.05468,0.07719 -0.05468,0.16886 0,0.11579 0.06915,0.192983 0.06915,0.07559 0.159211,0.07559 0.122223,0 0.321639,-0.160819 z"
         style="font-style:normal;font-variant:normal;font-weight:normal;font-stretch:normal;font-family:'Times New Roman';-inkscape-font-specification:'Times New Roman, ';stroke-width:0.20584869"
         id="path912" />
      <path
         d="m -90.158875,67.832336 v 0.331288 q 0.184942,-0.331288 0.379533,-0.331288 0.08845,0 0.146346,0.05468 0.0579,0.05307 0.0579,0.123831 0,0.06272 -0.04181,0.106141 -0.04181,0.04342 -0.09971,0.04342 -0.05629,0 -0.127048,-0.05468 -0.06915,-0.05629 -0.102924,-0.05629 -0.02895,0 -0.06272,0.03216 -0.07237,0.06594 -0.149561,0.217106 v 0.705996 q 0,0.122223 0.03055,0.184943 0.02091,0.04342 0.07398,0.07237 0.05307,0.02895 0.152778,0.02895 v 0.0579 h -0.754242 v -0.0579 q 0.112573,0 0.167252,-0.03538 0.04021,-0.02573 0.05629,-0.08202 0.008,-0.02734 0.008,-0.155995 v -0.570909 q 0,-0.25731 -0.01126,-0.305556 -0.0096,-0.04985 -0.0386,-0.07237 -0.02734,-0.02251 -0.06915,-0.02251 -0.04985,0 -0.112573,0.02412 l -0.01608,-0.0579 0.445469,-0.180117 z"
         style="font-style:normal;font-variant:normal;font-weight:normal;font-stretch:normal;font-family:'Times New Roman';-inkscape-font-specification:'Times New Roman, ';stroke-width:0.20584869"
         id="path914" />
      <path
         d="m -89.058872,67.832336 v 0.331288 q 0.184943,-0.331288 0.379534,-0.331288 0.08845,0 0.146346,0.05468 0.05789,0.05307 0.05789,0.123831 0,0.06272 -0.04181,0.106141 -0.04181,0.04342 -0.09971,0.04342 -0.05629,0 -0.127048,-0.05468 -0.06915,-0.05629 -0.102924,-0.05629 -0.02895,0 -0.06272,0.03216 -0.07237,0.06594 -0.149562,0.217106 v 0.705996 q 0,0.122223 0.03056,0.184943 0.02091,0.04342 0.07398,0.07237 0.05307,0.02895 0.152778,0.02895 v 0.0579 h -0.754242 v -0.0579 q 0.112573,0 0.167252,-0.03538 0.04021,-0.02573 0.05629,-0.08202 0.008,-0.02734 0.008,-0.155995 v -0.570909 q 0,-0.25731 -0.01126,-0.305556 -0.0096,-0.04985 -0.0386,-0.07237 -0.02734,-0.02251 -0.06915,-0.02251 -0.04985,0 -0.112573,0.02412 l -0.01608,-0.0579 0.445469,-0.180117 z"
         style="font-style:normal;font-variant:normal;font-weight:normal;font-stretch:normal;font-family:'Times New Roman';-inkscape-font-specification:'Times New Roman, ';stroke-width:0.20584869"
         id="path916" />
      <path
         d="m -88.015154,67.062011 q 0.06754,0 0.114182,0.04825 0.04824,0.04664 0.04824,0.114182 0,0.06754 -0.04824,0.11579 -0.04664,0.04825 -0.114182,0.04825 -0.06754,0 -0.11579,-0.04825 -0.04825,-0.04825 -0.04825,-0.11579 0,-0.06754 0.04664,-0.114182 0.04825,-0.04825 0.117398,-0.04825 z m 0.13348,0.770325 v 1.18363 q 0,0.138304 0.0193,0.184942 0.02091,0.04503 0.0595,0.06754 0.04021,0.02251 0.144738,0.02251 v 0.0579 h -0.715646 v -0.0579 q 0.107749,0 0.144737,-0.02091 0.03699,-0.02091 0.0579,-0.06915 0.02251,-0.04825 0.02251,-0.184942 v -0.567692 q 0,-0.239621 -0.01447,-0.310382 -0.01126,-0.05146 -0.03538,-0.07076 -0.02412,-0.02091 -0.06594,-0.02091 -0.04503,0 -0.109357,0.02412 l -0.02252,-0.0579 0.443861,-0.180117 z"
         style="font-style:normal;font-variant:normal;font-weight:normal;font-stretch:normal;font-family:'Times New Roman';-inkscape-font-specification:'Times New Roman, ';stroke-width:0.20584869"
         id="path918" />
      <path
         d="m -87.228748,68.430584 q -0.0016,0.328071 0.159211,0.514621 0.160819,0.186551 0.377925,0.186551 0.144738,0 0.250878,-0.0788 0.107749,-0.08041 0.180118,-0.273393 l 0.04985,0.03216 q -0.03377,0.220323 -0.1962,0.402048 -0.162427,0.180118 -0.406872,0.180118 -0.265352,0 -0.455119,-0.205849 -0.188159,-0.207456 -0.188159,-0.556434 0,-0.377926 0.192984,-0.588599 0.194591,-0.212281 0.487282,-0.212281 0.247662,0 0.406873,0.164035 0.159211,0.162428 0.159211,0.435821 z m 0,-0.09328 h 0.681874 q -0.008,-0.141521 -0.03377,-0.199416 -0.04021,-0.09006 -0.120615,-0.141521 -0.0788,-0.05146 -0.165644,-0.05146 -0.13348,0 -0.239621,0.104533 -0.104532,0.102924 -0.122222,0.287866 z"
         style="font-style:normal;font-variant:normal;font-weight:normal;font-stretch:normal;font-family:'Times New Roman';-inkscape-font-specification:'Times New Roman, ';stroke-width:0.20584869"
         id="path920" />
      <path
         d="m -85.585175,67.832336 v 0.331288 q 0.184942,-0.331288 0.379534,-0.331288 0.08845,0 0.146345,0.05468 0.0579,0.05307 0.0579,0.123831 0,0.06272 -0.04181,0.106141 -0.04181,0.04342 -0.09971,0.04342 -0.05629,0 -0.127047,-0.05468 -0.06915,-0.05629 -0.102924,-0.05629 -0.02895,0 -0.06272,0.03216 -0.07237,0.06594 -0.149562,0.217106 v 0.705996 q 0,0.122223 0.03056,0.184943 0.02091,0.04342 0.07398,0.07237 0.05307,0.02895 0.152778,0.02895 v 0.0579 h -0.754242 v -0.0579 q 0.112573,0 0.167252,-0.03538 0.0402,-0.02573 0.05629,-0.08202 0.008,-0.02734 0.008,-0.155995 v -0.570909 q 0,-0.25731 -0.01126,-0.305556 -0.0096,-0.04985 -0.0386,-0.07237 -0.02734,-0.02251 -0.06915,-0.02251 -0.04985,0 -0.112573,0.02412 l -0.01608,-0.0579 0.445469,-0.180117 z"
         style="font-style:normal;font-variant:normal;font-weight:normal;font-stretch:normal;font-family:'Times New Roman';-inkscape-font-specification:'Times New Roman, ';stroke-width:0.20584869"
         id="path922" />
      <path
         d="m -83.99628,69.993747 v 0.0595 q -0.242837,-0.122222 -0.405265,-0.286258 -0.231579,-0.233188 -0.357018,-0.550002 -0.125439,-0.316814 -0.125439,-0.657751 0,-0.49854 0.246053,-0.908629 0.246054,-0.411697 0.641669,-0.588599 v 0.06754 q -0.197808,0.109358 -0.324855,0.299124 -0.127047,0.189767 -0.189767,0.48085 -0.06272,0.291083 -0.06272,0.607897 0,0.344153 0.05307,0.625587 0.04181,0.221931 0.101316,0.355411 0.0595,0.135088 0.159211,0.258919 0.101317,0.123831 0.263744,0.236404 z"
         style="font-style:normal;font-variant:normal;font-weight:normal;font-stretch:normal;font-family:'Times New Roman';-inkscape-font-specification:'Times New Roman, ';stroke-width:0.20584869"
         id="path924" />
      <path
         d="m -83.84511,67.129555 v -0.06754 q 0.244446,0.120615 0.406873,0.284651 0.229972,0.234796 0.355411,0.55161 0.125439,0.315205 0.125439,0.657751 0,0.498539 -0.246054,0.908629 -0.244445,0.411697 -0.641669,0.588598 v -0.0595 q 0.197808,-0.110965 0.324855,-0.300732 0.128656,-0.188159 0.189767,-0.479242 0.06272,-0.292691 0.06272,-0.609505 0,-0.342545 -0.05307,-0.625587 -0.04021,-0.22193 -0.101316,-0.35541 -0.0595,-0.13348 -0.159211,-0.257311 -0.09971,-0.123831 -0.263744,-0.236405 z"
         style="font-style:normal;font-variant:normal;font-weight:normal;font-stretch:normal;font-family:'Times New Roman';-inkscape-font-specification:'Times New Roman, ';stroke-width:0.20584869"
         id="path926" />
    </g>
  </g>
</svg>
